<mxfile host="Electron" agent="Mozilla/5.0 (Windows NT 10.0; Win64; x64) AppleWebKit/537.36 (KHTML, like Gecko) draw.io/27.0.9 Chrome/134.0.6998.205 Electron/35.4.0 Safari/537.36" version="27.0.9">
  <diagram name="Page-1" id="idlQPCR0Nm5kG-g9A_si">
    <mxGraphModel dx="2059" dy="1965" grid="0" gridSize="10" guides="1" tooltips="1" connect="1" arrows="1" fold="1" page="1" pageScale="1" pageWidth="850" pageHeight="1100" background="#E6E6E6" math="0" shadow="0">
      <root>
        <mxCell id="0" />
        <mxCell id="1" parent="0" />
        <mxCell id="BapCHJRB3HRV54kZIlsD-42" value="" style="group" parent="1" vertex="1" connectable="0">
          <mxGeometry x="-690" y="-9" width="1072" height="1090" as="geometry" />
        </mxCell>
        <mxCell id="JVz_1oxV5FioTtpvH3Ss-17" value="" style="rounded=0;whiteSpace=wrap;html=1;fillColor=light-dark(#fec85d, #9a5800);strokeColor=#BD7000;fontColor=#000000;" parent="BapCHJRB3HRV54kZIlsD-42" vertex="1">
          <mxGeometry width="1072" height="1090" as="geometry" />
        </mxCell>
        <mxCell id="BapCHJRB3HRV54kZIlsD-10" value="" style="shape=image;verticalLabelPosition=bottom;labelBackgroundColor=default;verticalAlign=top;aspect=fixed;imageAspect=0;image=data:image/jpeg,/9j/4AAQSkZJRgABAQAAAQABAAD/2wCEAAMCAggICAgICAgICAgICAYICAgICAgGBggIBgYGBgUICAYGBgYGBgUGBQYGBQoFBQcICQkJBQULDQoIDQYICQgBAwQEBgUGCAYGCAgICAgICAgICAgICAgICAgICAgICAgICAgICAgICAgICAgICAgICAgICAgICAgICAgICAgICP/AABEIA4QDhAMBIgACEQEDEQH/xAAeAAEAAQQDAQEAAAAAAAAAAAAACQECBwgDBgoFBP/EAFIQAAIBAwEEBgYGBwMJBwQDAQABAgMEEQUGEiExBwgJQVGREyJhcYGhFDJScrHBFSNCYpLR8DNT4Rk0NVSCk7LS8RYkQ1VzwuIYJSaiRGODF//EABkBAQADAQEAAAAAAAAAAAAAAAACAwQBBf/EACQRAQEAAgEFAQEAAwEBAAAAAAABAhEDEiExQVETYTJxoSKR/9oADAMBAAIRAxEAPwCPQAHoMgAAAAAAAAAAAAAAAAAAAAAAAAAAAAAAAAAAAAAAAAAAAAAAAAAAAAAAAAAAAAAAAAAAAAAAAAAAAAAAAAAAAAAAAAAAAAAAAAAAAAAAAAAAAAAAAAAAAAAAAAAAAAAAAAAAAAAAAAAAAAAAAAAAAAAAAAAAAAAAAAAAAAAAAAAAAAAAAAAAAAAAAAAAAAAAAAAAAAAAAAAAAAAAAAAAAAAAAAAAAAAAAAAAAAAAAAAAAAAAAAAAAAAAAAAAAAAAAAAAAAAAAAAAAAAAAAAAAAAAAAAAAAAAAAAAAAAAAAAAAAAAAAAAAAAAAAAAAAAAAAAAAAAAAAAAAAAAAAAAAAAAAAAAAAAAAAAAAAAAAAAAAAAAAAAAAAAAAAAAAAAAAAAAAAAAAAAAAAAAAAAAAAAAAAAAAAAAAAAAAAAAAAAAAAAAAAAAAAAAAAAAAAAAAAAAAAAAAAAAAAAAAAAAAAAAAAAAAAAAAAAAAAAAAAAAAAAAAAAAAAAAAAAAAAAAAAAAAAAAAAAAAAAAAAAAAAAAAAAAAAAAAAAAAAAAAAAAAAAAAAAAAAAAAAAAAAAAAAAAAAAAAAAAAAAAAAAAAAAAAAAAAAAAAAAAAAAAAAAAAAAAAAAAAAAAAAAAAAAAAAAAAAAAAAAAAAAAAAAAAAAAAAAAAAAAAAAAAAAAAAAAAAAAAAAAAAAAAAAAAAAAAAAAAAAAAAAAAAAAAAAAAAAAAAAAAAAAAAAAAAAAAAAAAAAAAAAAAAAAAAAAAAAAAAAAAAAAAAAAAAAAAAAAAAAAAAAAAAAAAAAAAAAAAAAAAAAAAAAAAAAAAAAAAAAAAAAAAAAAAAAAAAAAAAAAAAAAAAAAAAAAAAAAAAAAAAAAAAAAAAAAAAAAAAAAAAAAAAAAAAAAAAAAAAAAAAAAAAAAAAAAAAAAAAAAAAAAAAAAAAAAAAAAAAAAAAAAAAAAAAAAAAAAAAAAAAAAAAAAAAAAAAAAAAAAAAAAAAAAAAAAAAAAAAAAAAAAAAAAAAAAAAAAAAAAAAAAAAAAAAAAAAAAAAAAAAAAAAAAAAAAAAAAAAAAAAAAAAAAAAAAAAAAAAAAAAAAAAAAAAAAAAAAAAAAAAAAAAAAAAAAAAAAAAAAAAAAAAAAAAAAAAAAAAAAAAAAAAAAAAAAAAAAAAAAAAAAAAAAAAAAAAAAAAAAAAAAAAAAAAAAAAAAAAAAAAAAAAAAAAAAAAAAAAAAAAAAAAAAAAAAAAAAAAAAAAAAAAAAAAAAAAAAAAAAAAAAAAAAAAAAAAAAAAAAAAAAAAAAAAAAAAAAAAAAAAAAAAAAAAAAAAAAAAAAAAAAAAAAAAAAAAAAAAAAAAAAAAAAAAAAAAAAAAAAAAAAAAAAAAAAAAAAAAAAAAAAAAAAAAAAAAAAAAAAAAAAAAAAAAAAAAAAAAAAAAAAAAAAAAAAAAAAAAAAAAAAAAAAAAAAAAAAAAAAAAAAAAAAAAAAAAAAAAAAAAAAAAAAAAAAAAAAAAAAAAAAAAAAAAAAAAAAAAAAAAAAAAAAAAAAAAAAAAAAAAAAAAAAAAAAAAAAAAAAAAAAAAAAAAAAAAAAAAAAAAAAAAAAAAAAAAAAAAAAAAAAAAAAAAAAAAAAAAAAAAAAAAAAAAAAAAAAAAAAAAAAAAAAAAAAAAAAAAAAAAAAAAAAAAAAAAAAAAAAAAAAAAAAAAAAAAAAAAAAAAAAAAAAAAAAAAAAAAAAAAAAAAAAAAAAAAAAAAAAAAAAAAAAAAAAAAAAAAAAAAAAAAAAAAAAAAAAAAAAAAAAAAAAAAAAAAAAAAAAAAAAAAAAAAAAAAAAAAAAAAAAAAAAAAAAAAAAAAAAAAAAAAAAAAAAAAAAAAAAAAAAAAAAAAAAAAAAAAAAAAAAAAAAAAAAAAAAAAAAAAAAAAAAAAAAAAAAAAAAAAAAAAAAAAAAAAAAAAAAAAAAAAAAAAAAAAAAAAAAAAAAAAAAAAAAAAAAAAAAAAAAAAAAAAAAAAAAAAAAAAAAAAAAAAAAAAAAAAAAAAAAAAAAAAAAAAAAAAAAAAAAAAAAAAAAAAAAAAAAAAAAAAAAAAAAAAAAAAAAAAAAAAAAAAAAAAAAAAAAAAAAAAAAAAAAAAAAAAAAAAAAAAAAAAAAAAAAAAAAAAAAAAAAAAAAAAAAAAAAAAAAAAAAAAAAAAAAAAAAAAAAAAAAAAAAAAAAAAAAAAAAAAAAAAAAAAAAAAAAAAAAAAAAAAAAAAAAAAAAAAAAAAAAAAAAAAAAAAAAAAAAAAAAAAAAAAAAAAAAAAAAAAAAAAAAAAAAAAAAAAAAAAAAAAAAAAAAAAAAAAAAAAAAAAAAAAAAAAAAAAAAAAAAAAAAAAAAAAAAAAAAAAAAAAAAAAAAAAAAAAAAAAAAAAAAAAAAAAAAAAAAAAAAAAAAAAAAAAAAAAAAAAAAAAAAAAAAAAAAAAAAAAAAAAAAAAAAAAAAAAAAAAAAAAAAAAAAAAAAAAAAAAAAAAAAAAAAAAAAAAAAAAAAAAAAAAAAAAAAAAAAAAAAAAAAAAAAAAAAAAAAAAAAAAAAAAAAAAAAAAAAAAAAAAAAAAAAAAAAAAAAAAAAAAAAAAAAAAAAAAAAAABkPy9r5ABkosPk1J+EXmXkj92n6DcVXu07S6m/FUpOPnugfh3hvoyho3Vn124x6KxqcVlb0GuHkdy0/qF7WVd3csoety3uHmR6o7pr7vob6NlKnZ1bYpNuypYXPj+B8W86jW1NNZlYrHsX+A6p9hqsDbwO+7QdBOr2rkq9jXzFZluU5Pywjo1WzqRzvUK9PHP0kJQS9+Ud2OMFE13SjL2J5ZXJ1wAAAAAAMlN5fbive+IFQW7y+3DzG8vtw8wLgUT9qfu4lcgAAAAAAAAACmfh7XwXmBUFu8vtw8xvL7cPMC4FN5fbh5lQAAAAAAAAAAyABRvxaXv4FN5fbh5gXAt3l9uHmVTXdKL9ieWBUDIAAAABkf1nu8wAyVp03L6sZVfZSTm/JJnatkuirUr7H0ayueLwt+nKK+a5AdT30U9IjYTRuoTtZcLNKyhj97h+J92n2a22bWfotqvfUin5ZI9U+xLVav76G8bL33Zy7ZU/rWdB/ckp/wDDk6ZtH1Q9o7RN17KWFz3IuX4IdU+uarDmQfT1nZe5t57lazuoy8fRS3PPGD5cljm1B+E/Vl5Mk4qAvP2rkMgAAAAAAAAAAAAAAAAAAAAAAAAAAAAAAAAAAAAAAAAAAAAAAAAAAAAAAAAAAAAAAAAAAwDZbUkksyeF4rj8uZ9TZrZyteXFK2t479arKMYR5/WaWfdxJVOrP2Y9hZRo3mqt3F3KKlK2liVuuCaTTf1uOHwIZZTFKS1Gt0ddBGr6rOEbKxq1YT5Vt1qKXjyNx+irsk72qoV9RvoQhLDdth76XflpNJ+xsk/2c2RtrSCha0KdvBcN2nBRWPDgfX9Cub5lF5b6WzCNXtgezp2YsN2StJVKyxvTnJuLf3d1rGfaZ90Lo5sbWKhb2lvFcP8Aw4b3D2uDZ2cqVW2pySPyUtPguVOmvdFL8Io/QofD3cC8HHXGqftYdNeCfvOQAfgraTTlzpUpe+MX+MWdG266v+kajCULuyotS+tuQjBv4xhz+BkgAaC9MHZQ6XcxlLR6jsajT+vmcd7+HOH7UR7dOXVb1fZ+cvptvOVrB7rvoxbpN93LxPQDOmnzPi7V7I297Rlb3dGnc0J43qVSKlHk0nx71nnzLceSzz3V3Cenm7UuT7nyfj8PaXG9fXg7Pqrpjq6rpEXVsuMriguM6Ucv+zis+qvYaJRlya5Pkn9ZeyS7n7zTLL4U2aXFJMqikkScdg2A2Pqahe0LOl/aVpxS+62k35Eqey/ZTaF6Cl9J3513CLnJPC3nFNr4N4+BFn0YbX/QNQtLvLW5XpQyufrSivI9D2ymoqrbWtSLyqlCjPK/epQl58WUcls1pbhJWof+Sm2b+xU8yq7KbZr7FTzN1MDBT136s6Z8RhdYHss4W9nWudIqN1KSc/QvjJwim3j2pIjiuraUJShOO7KEnCUXzUovEvmj0o3lupJx+2nGXucWmQS9eLo4WmbTXtGnHFvJekpvlmU/Wfs7y7jyt7VXnjrwwKgUgVL1QAAAAYFlSokm3wS5v38jeTqm9nDW1ihDUdRqeitKizSoYanUi+U08cF7zTzo92b+mahZWeM/SasI48cSR6F+jrZlWljZ22Evo9ClTSXDGIYKeTLXhZjNtT6PZSbOY9aNRvxyX/5KbZv7FTzN1Uhgo679W9M+NINR7KLZ9xfolOMsYTb5Pufw5mg/W56nl3stVjOpV9PZ1n+qrJNRg2+FN5S9ZcidZo1r6+3RRHU9nbmG7n6KncJc2nCOW/H2ksc7vujljNINvZ/XHkVOOjV3o7370o/wcPyOQ1qAAAAAAbOawsZ1Zwp04uc5zjCMVxfrNJPHgs5OCS7jZrs8+i9ajtHa1Zx36No81INZi8cVnu5nLdTbs7tm+hjsoaE7ajW1S49LOtCFTcjlOCqRUlB8MNpNcjKr7KbZv7FTzNzaFulwSwlhJLkkkl/gc+DH1360dMaVf5KbZv7FTzOkdMHZXaXCxr1NNnKjc0qc6ic3lOMIuTXkmSGGJ+s5t7T07RL66m1FKlOnlvHGopRX5nZnl9OmPP3Xp7sqke+lUnSftlCTTfxwULrmeZ1pf3ladRe6cm1+JabGYKZDZk3oD6veobRXkbSxpvdyncV2sUadP9rE+XpEu7Jy3TroOh7P3F1UVG2ozr1pNJUoLebz7UbudBPZY6jexpXWpV1a0ZNOVpJP0rXNrguHDxN9OrZ1OtK2dt4RpU43Fzwc7mpFSqKSXrKLbeI734GfPRcs8Wu/kZ8uT4tmH1gHop6j2zmkPetbJSqcN6VX9YpNc3iUcJN9yZm+00CjDhChQgly3YQj+EEfTBTbas041T8OHu4FvoP3pef+BzA46440sd7fvf8Agcda0jLnCMvvJP8AFM/QAOu6zsHZ3EXCva284tYeacN74PcyvM1/6Q+zu2Y1BuUrSVOtx3Zwk1FP2xUUsZ9ptEUOy2OaRR9MHZN3tBTr6bdxq01ytcPffhxaw/DgzSLbzo2vtMryt762nb1E8JSTSnjvTfA9G3oVzXB+JiPrDdXPT9oLKtbXdOKquDdO6jFKtCUU9xKXPdzjK9hbjyX2hcPiADJU7B0hbFVNOvLizqfWoVJwg++UIyajJ+1o6/FmpQAAAAAAAAAAAAAAAAAAAAAAAAAAAAAAAAAAAAAAAAAAAAAAAAAAAAAAAAAAAAABSfJlSlTkwNhOz/0+NXbLTYTScfRzlh8sxWV+BOrR5v2PC8l8iDTs7n/+aab/AOhV/wCFk5NKqsy4r63/ALUZeXyvw8P0A/Pc3agnKbUIpZc5NKKXi23wXvMPdJ/Wz0PSoOVze0qrWW40JRqyXsxCTWfiVSbT2zPKeP6yUU88vnlEcnSR2ulolKOkW0qklwTrLCZrptn2nG0t5lblK2i+XouDS+HHJZOOo9cTSNy8I+b/AJFMz8I+b/kefbaLrN69cy3pardUn4QnJL5M6/8A/wDZtb/88v8A/eT/AJkvyv1HreipOXhHzf8AIuTffj4cTzx6R1gddovK1m8n7JVJP8WZU2K7QfaSxxuVfpG7/evOffk5eKu9cTkxnn/pj8SpHD0LdrPQqyp0dbt/Q1KklGMqCzBN8My7sEgOyW2ltfUY17WvTr0pKL3qcoy3N5ZSlutuMlyxLwK7jZ5TllfeKYCZUi6/FqemwqwlTqRU6c04zhJZjJS4PK7+BCz1/eq5LQNRlc29N/o67bqOol6lOpJ59GuGFh8CbLBhbrX9C1LXNFurOovWpwlWpP8A/spwlJcfbj8CeGWqjlNxAUv693d8ip+nVdLqUKlSlVWKlOc4NeyDaj8kfmTNrMtj3fuP0i98GmvjwJxez96VHquzdtVk81aTlSlFvMlGG6ofBrPkQd/nw8yQ3sjOkmSvb7TJyxSjSU6SbwnLKbwvHGSrkm4nhe6VEqcdB8OPPj+JyGRoWVfHwy/JEXHa+7B+jnp1/Tjl15unUaXJRxzfuZKRKJqp2jPR7G92duq6jmVlGVVd74YTx5onhdWI5TshOmvWfvBw2s8whLvkm2cxtZgAACjKlM/LD8gNjOoJ0fK/2js5uO8rKaqP2Y48Sc6EOL+BGB2QmwOLjUdQkn68IxpvuzvJSw/dklAoclkycl7tGHhyAAqTDre3uhfSLK8of39CrT/jpuP5nZDiqR4r4/gB5xukXZT6Df3dl/q9Wp85M6/E2N6/+wKsdpr+qk1G7m5RT5fA1xRvl3GWqgA64AACilh5fKLTZJ12QXR1OlR1K+qxyq84egk1yj+1hkYcqbkpRX1prdj7W3wJ1uohsV9B2Z06O61UqQU6ueDy21+GCrkvZZhO7YejyWeeFk5CiRUyL1lWeFkj17W3pWjRsbfR08O9/WcHxxCTXH8SQipLil7/AJYIPe0L6TP0ltHc08uS0+UqSfNLj+z/AIFvHN1DO6jWZLkvspR8uBVhfmWylhSfPdW9jxx3e81s7tvRf0YXesXtGws4t1a84rfSyqcW1v58OBOz1cegS02f02jZ21NRqbkXc1MfrKlVxzN72M7ucrBqx2V3QFC2sJa1Vh+tveFJTXrU1FrLWeWfYb/04mXky3dL8J7XJFQWykUrFS3f8PnkxR089ZXStnrd19QrL92jBqVaTXhHOcN8MsjY6ae1K1a9nOnptKFCzedypyrtd2Xz5E8cLUblIl5r3O4m5uEYrm3LC83hHXbnpM0+CzK8opLh9dEAu0fTvrV1Nzqatdx3ucIzluce7GeR1yptpev619cS985Fn5f1D9HoZtOlTTp/UvaMv9tH3bLXKVX+yq05+xTTfkss85FLbC8j9W9rx905H7rfpO1WH9nq15T9saks/id/L+nW9G8c9+Pn/IKr7/JkCWxXXM2hsZRlC+q3G7jCqybTx45NnOjLtcL2EoLV7SmqSwpTpL12lzfDvIXjrsziVQ4LhcJfdf5mCehvrpaDrUFK2uo0JPC3LhxpSbfct58TNlXU6bpyqeki6ahJuopRdNLD708Fdmk9oGuuGv8A8ivPvT/FmFomWutTrlK4169q0ZKcFUqR3lxTak+8xLE24+GaqgAk4AAAAAAAAAAAAAAAAAAAAAAAAAAAAAAAAAAAAAAAAAAAAAAAAAAAAAAAAAAAUkioA7h0P9J1bRtTttUoLeq27SUfGGVvL4okR2g7Xy3p0YSo6ZKtWlFb8VLCjPCy+HNJ9xF8FJrlw9xC4y+UpbPDYbpc6920WrSqx+mO3s6uc20eDSfdlPuTwa8S4tycqkm229+bmsvnzbKtAlJJ4c2OXsXwWCm6VB1wwMAAMFN0qAKZa8PLL+D7jY/qTdaOvs7qVOE60/0ZczUK1GcnL9ZN4UllvdSbya4lj5PxSbj7JL6r96ZyzbsunpR0XVYV6VOtTkpU6sIzjJPK3ZRTSz8T6Bp92aPSm7/Z6jb1Zync2zkpyk8+pvR3Evck0bfxZhs1dNMu1xwXNJP1WsqWVJeKcWc5x1pYWfBM46gv6/XRytP2mvpQW7QrvNOHJRb4s10j4Eh3bCbIxp19Lu4L1q8pRqf7L/lgjyn9Z+9m3C7kZsvKjMt9VHpFnpuv6bVi8Qr14QrNPGIOWHn2GJWVo6hOi1Wp/wBpScZQ96ZK93HpTsruM0pxe9CcYuMlyaeX+B+ow51UNu1qOg6bXUk6ioU41u/E4p735GYkzDezUqdR6UNj43+n3lk//wCRRqR88NfNJHbjjkuOfZjzaODzdbZ6T9Hvb62XD6LXqUvDlJrgfKRsP19ejz9G7R16bSX0tyrpLhlSecmu8Wb5dxlqoAOuBa1wl4uLS9/cXNn6tGsZVa9rTisupc0YY9kpxXkBMz2ZmxTtNmLapOOK1ecnLhxSTil55z8DbpI6V0Q7JxsdOs7VJepQpt45ZcIt/id2MFu61TtFBk4p1MS9m7Jt93Br8jWvqk9Pb1a41i1qScp2l7VhB5/YUmuHs5DRtsyWV3weOeC6LKyRx1F52wexD9NpV5TjhJTVaSXPEpbufhgjkb4v2t49xNV2lWxsbrZi7rKO9WtsOGFl43mpfkyFKl9WGee4s+xmvjvZnz8uQAFqAGwWzA7T0WbOTu9T02hCLlvXdLfS44hvrLfsweiDZzR4W9GlQprEKVOEVjgvVSTfxxn4kNnZlbCfTNpXOcU6VCi6nHit6Kzw9pNNSefhleTMvLe+l+HhyFCpbMpWOi9NW2P0DSr+7clB0berKD5etuerj2tnnu2m2jleXFe8m8zuak5Sfe+LwS0dqv0muy0OhQhL9Zc1tycE+O44x5rwznmRCunj1V3cfPmaeKdtqc73D6eyulSr3dlRjHedW6pQkv3ZTSfwwfMkZZ6q2kqvr1lCXJVacvipJl18K07PRpsnTsbG1tKaSjSo0+Sws7sd7h7zth+e1hhR9kIr5I/SYGpQ6/tvtVGytbm7qLMLWlUqyX2lCGcfF8PidgZr514tbqUdnrx03hzg4S9sXHijs71yoaen/pnra9qlzqNSUnSqVJq3ottwpKLa+q3gx1j+uSOK2jiK+9N+beTmN07MxgYAOuGBgACmCq/rPEABTniUZqU4yg04uEnBJrlwTRk+h1ndoY28rSOpTVtJbsqeXvOOMYznwMYFN05p1WcsttttyblJvi23zefeADrgAAAAAAAAAAAAAAAAAAAAAAAAAAAAAAAAAAAAAAAAAAAAAAAAAAAAAAAAAAAAAAAAAAAAAAAAAAAAAFMcV70vmVHevegJC+x72om7/VrRv9XGlCUF4Pei3j4Ep1t9Vf13kO3ZS6g6evXKX/iQSZMZEycn+TRh4XFlZcH7mXltTkypNH52uGjRnp9jVf1qU5uPxIpFLv8AEl+7VWgno1NtcVJ4IgKXKPuNfF4Z8/K8QispPk+fkC2ZaglI7InpHdSxvrGtP9ZCtvUYt8dxKSePZxT+BIrT5EHHZ8dI70/aa33pYtq1N05xzjM5rCfwbJw7eeePdL1l7mlgyck1WjC9nOcdaOV8V8nk5CjKk0X3a7dHeKtpqu5whBUXU+SRHFj8E/PiTadov0Z/pLZqtTw3KhONbK5rcy38ORCVv54+D3P4OH5GvjvZRnO64AFqtSb4GbephsQtR2msrSSyklWfevU9b8jCcY5aRvn2SvR8rjUbjUsf5spUs+G8muZDK6lSnlLFaUVFRiuUEofwpL8j9Jx0o8/a8l05cDE0uhdN+2P0DSdQvFzoUKj88R8/WIvuzQ6T3/2rvlOe7QvoVakVng6ks7vxybidpV0h/Q9n6tunh32aeeT7m1+BEz1edsp6dq2l1Yt5lcU6Un37rmk8l+E/81Vle8eh6iufvb+GeByH5LO43lGS4xlCMk/vcfwP1lC10rpb2Pjf6dd2kuPpKNR47spScfmeePX7J0rm8pNY9Fc1aaXsjNo9JVxRymvtRcfPJAr1ztglpu0d3apY9I5V8eO+97PxyX8V8qs4wkgUgyppUgprj8JfgDirZ3fVWXvwikub3mkBKd2RGwEY6bc6nOOKsqs6UW+bis5+HLzJE4L+veYL6m/R3HTtAsqWN2VelCtJYxhzjnj7ccTOqMOV3a04zUVOKq/k037lzOU65t1tJCztLi5qS3YUqNR/7SjLd+ZFJEJ2nXSg73aF2cXm3t6UcccrfivW+OUaexZ2HpC2pq3t9e3FaW9OVzV3Hz/V773fkfARuxmoy27UkZd6p+pxpa/ZTk8J1KcfjvIxGz6eyerSoXdlWi8eiuqU5v8AcjNN/I7R6Q7afCP3E/wP0HUujXbClf2Vtd0XmnVo08e/EU/mdtMDUozE3Wb2B/SOi31vx3o0Kk6eOLlKMG0vjyMtHHVpp9yfPg+Tzw4geam802pRlOlUi41KdSopxaxKOG0sru+JxpkmXX96g9WtUra3o1PenLMryzgvWqvjxppfgvEjU1TTKlCbp16cqNRN5pTTUovlh570bscpWazTgAkmuYTJIgAAAAAAAAAAAAAAAAAAAAAAAAAAAAAAAAAAAAAAAAAAAAAAAAAAAAAAAAAAAAAAAAAAAAAAAAAAAFGwKguo0nKcaaTlUlwhCK3nJvkuHLJsN0RdQ3aHV3D/ALtOwp1MbteomopePHuwctk8uyba7Z8Wl7+Ajh8pRl7IvL+RKZsB2RlpT3P0ld/Sksb+4nHe8cZSM5bOdnVsnayUqdjJyXfKbll+5wwV3kifRUIqtpd1Kq/uxb/IfRJ/3Ff+CX8if/Seq3oVF5hY0/jFP8Yn1P8A6e9G/wBRo/wL/lI/r/Heh563by/u6i98WvyLHhc3GP3ngn7vuqdoFRSUrGniXPCx/wC3gdI17s89k7hYqWEv9mbj+EB+sOioO1Jd0ov3PJVJ8OD5ruJc9rOyd0Saf0KUqD/Z3m5Y8O7uMG7WdkDqUW52uqU5RXFUt1qXD2tJEpyYo9FdD7LT/T9b7qJl1z8iMzqL9U/WND12tUvLeXocYVbHqywSZrn5FHJd1bh4XFs+TLi2fJlabSTtUf8AQsPvMh7pfVj7iYTtUf8AQsPvMh7pco+41cXhRn5XhgFyt+/ZzWJ29xa1qcnGdO4pSclwe5Gacl7sHoY6IttaeoadaXdNpxnRpp44reUYqXz/ABPOs+UvbFpe8mB7LDpKV1oS0+bzVtJNt5y92Uo4XmkUcs7bW4Xu3fBbCWUXGZc6t0j6IrmxvaDWVUtq0Uva6Ut354PPDtlszKzuri1lwlSrVW8+Dk8HpCqrku55z7sMgy6/2wbstp7+aju0q7zT7lx4vBfxXvpVnGuUWVKRKs0qVrq7uZfZ/PgTB9lf0bOy0OtWa43lVVU/Zuy4ebREDbaZKu1Qh9etKEY+9s9AvVm2T+haDpdvjEoW9L0ntk0978inlvZZhO7KlNcF7kUqeHjlfIuRxV5d74KOW/ck8mVei17Xvbr0tbT7GnPH0eW/Uinz3vH4Ee9ve+jqRrLh6GcaifhuvJnzr67ZO82qv5xlvUYRUKa5pOPB/ga8uGU4/aWPM24TUjNl5egHqq7aO/0DTbly33OlBN836vDj8MGYEaLdlL0jO60itZ5yrGUY48N43npSyk/YZMpq1ol3FK0c496Il+1o2CVLVKGpKOPS0qdHex6rwkufiS1T5GkfarbAu80ChNL1rauqjlj1sKMcrPhwJYXVRy8IfsYePcVKOpn1vH8uBU2M6kjvfQPsh+kNb02xxn6RVh7VwafE6Ljil4s3B7Lzo9V9r0rnGf0fiWcfVzjHm+BHK6ldnephtmtHVChQoLj6CnTp/wAMFFfJH1zjpri344/A5DC1LZywajdpN0qQ0/Z+vbRli4vPVp9zwm97H4G29Xjw8ckRnawdJ6u9VtbGnLhY7yqx/ek23n4+JPCbqGV7NFU+Ec82vW+93l5R8372VNrOFrjlNct5YT8G+8uKNASzdlh0+RvNOno9Wea1hxi5P1pxbWVHPPHPgb7U5Hnb6GOl240PUbfUbdvNCcd+nF49LHK3spc0l4k8vQp0vWutafQv7WpGcakI+lSeXSqbvrQaXJp5MvJjq7X4X0yECiKlKxZKHn4/4GCOm3qbaLrcZ+mt40K08t3FOKVTL7+aWc+4z0UaOy6cRDdMfZV6raSnLR5q8pc16VpTx7s817DUnb/ok1LS6nor6zrxnyzTpylDPvSxg9Frp+1r3cD5Gt7J21xFxr29GrFpp78Iylx9rjlP3MtnLfaFwjzdS4cG1F/Zlwn5PiVw/B+/HAms6T+zd2b1Bzqwt5ULqWWqkW9zP3N1LyZp/wBJvZOarbOpWs72FxS47lBJqa8FxSz8C2ckqu4WNE8g75tv0C61prkr3Ta1CMc/rHFtSS/a5cjoFGalndbeOeVu/iWorwUyVDgAAAAAAAAAAAAAAAAAAAAAAAAAAAAAAAAAAAAAAAAAAAAAAAAAAAAAAAAAAAAAAAAAUYBmR+g/oD1HX7uNtY0ZSjlelrNP0EY/tYny3kj6PVn6vdztJqVKyoZhRypXFzjMacU05x5c2uBOL0M9CtjodnTsrGjGnCCSnPH6ypPC3pOWM4csvHtKs89f7Txx2wx1a+oNpGhUlKrSjfXct2U51oqapS5tU8vknwybR0bdRSisKKSSilhJJYS4d2DlSKmW3flfJpZGklyReUKb/wDX+Jx1cD8t1eqCcqkoQiuLcpbvBc+eDrd50p6dDG/eUY55eugO3A6S+mLS/wDXqP8AGj6mn7e2VVJ07qlLPL11x+aDm3YJQLY0EuKRZTqtrMXFp8mnlP4pYORN9/y4h0UX4/IuLYVU/Hya/EuAqWz5MuLZ8mBpJ2qP+hYfeZD3S5R9xMJ2qP8AoWH3mQ90uUfcauLwoz8rwAXK1PD3o3J7LrpXWn65WtqkvV1FRp04vkpJppr4o02kdv6HtsFp+q6ffOW7C1rQlN+xyRHKbmnZdV6K6XDh4Y+Zynwdjdo4Xdrb3UPq3NKnUi/FSjvI+8YWpx1nwb8EyMftf9gOOm31OLy5SjXaXDC5Nsk7kjWDtC9iVebM300v1ltFzhwy3h4aXnn4E8LqxHKdkIMnxfg2ykjjopqEM893ivacj7vevxNrMyN1cdk53uvaTRisw+kwdb2R3j0G6faKnGNOKxGEYRj8Mr8iHzsq9hI3ev3VWrDMLWkqlOXdvcl8yYqjLPH+uDMvLe6/CdnKdX6RNcjbWN5Xm8RhbVmn+96Ke7/+zR2c1a7RXb+en7L3NSEt2pUnCml3tT3lP5Y8yqTd0nULG020NS6uLm4q/wBpO4rL/Z35bp82HBr2MpL/AIsTfvlxZWaN7M3i7J7bxWurXFm5Y+m8VD7TXJ49hLzTfNeGPwPP91T9r3YbSaZdZwqclF8cJ7zS4k/OnXSnCFRcqkYzXucU18sGXlnddhez9bMXdZDZdXmh6pRcFOTtq3o8rOJqCcWvblGUj8Wp2aqQlSksqpGcX8Vgqix5rqmnTo5o1OFSnOoprv8ArPARk3rN7JSstoNWoNerGvL0b7mm3yMYpm6Mq2csKT+yt73YJZOyX6OXQ0241FxSV64pS75bsk+ZFBb2+/KFP++lGl/E8E+PVE6P/wBG7PadaY3dynGWO/12p8SrlvZPDyzRRjhJF5QMyr3ytpNahb0K1xPhGhTnUl4YjByf4Hn16f8Abj9Ja3qN8pb0LirPc70t1tcCYvr7dKa0vZ25qZx9KX0fPJ/rI9xBjRpbsVH96Uv422aOKe1Od9OSJUA0KgAAU93MzZ1YutVf7M3XpbdurazaVxayf6rdf1qiX20uPAwoUx/X8zlm3U/nQJ1ntK2gto1rOvCNRqPpKNSSjVUmvWUYykm0nw4Iy+qnjw955vNldr7qxrQuLStOjWg04uMnGnlcsxTwze7oG7Vq5t1TttaoO6cnGP0mHqqC5ZfPPDmZ8uP4tmf1KyDDXRx1stB1TCtdQpOo8ZpOW7JN93hwfDmZgp1MrPBp8U085Xd7H8CnWlrlBbGef+mPxLjgo0Wqkly4F4A+Pr2y9vdQ3LmjTuI8fVnBSWHzXE1b6dezc0LV/XpRen1Unuxt0o05S7t5Z5N+GTbwo0dls8OWbQR9YTqU6zoE3KdGVzaNv0c6CdSW73OW7nGFzya+tc13rmu+P3vBnpTvtNhUi4TjGpGSalGa3k01hrDT7iOTrq9nJTlCtq2hx3JxUqleyS/tebnKPDhjnj2mjHk+qssPiMjILq9FxlKMk4yhJxnF8HGSeHHHsZai9UAAAAAAAAAAAAAAAAAAAAAAAAAAAAAAAAAAAAAAAAAAAAAAAAAAAAAAAAAAAAADP06Rpc69WlQpLNWvONOkvGUnhH5ZG03Zy9EMdV2hTqx/VWMVcQljK348UvPgct1NuybSW9S3q30tA0qnGUF9MuIxqXMsesm1y8Vg2Kiiynx4/DybOUw27aZ2C1suOsdIe3FHTrO5vrhpUbanKpP27uGse3Jx18rpa6ZbDRraVzf1o04KLcaeV6Wpj7Ec5fgRmdOXapahdTnT0ilGla5aVSXCs8cPeaz9ZPrCXW0Wo1butVlK3U5KypptQhST4Jxzh8DE7/rHBGrHjk8qLn8d/wBrenzWr2o6lXVLqOf/AA4zlueWcHV6u2F5L617Xl4ZnLgfJwMFukH0v+1N1/rdb+Jn6aO3eoR+pqFzBLlicuHzPiYGA473oPTzrdvJuGsXkljG5Kct1e7iZf2I7RLaWxiowmrlZXGs95v357jWXBTd4r3r8TnTHdpeuor167/aW7uLPULalRqUY7ydLk/f/gbxxZD/ANkp/py9/wDT/ImAgZc5q9l+N3FxbPky4tnyZWm0k7VH/QsPvMh7pco+4mE7VH/QsPvMh7pco+41cXhRn5XgAuVhw16O9Fx8Wnj7vE5iilh59/zAm87PTpLWo7PUFvbzs8UM5zjdi8L4JG0UWRQ9kl0nuhe3Gjb36utGdxut/tKL5fBtfElbpS5+xteRizmq043cch1rb/ZiN5aXFrJJ+mpVFh8stNL54OynFVXz4ebIJPN/t1pDoX2oUJLHobqrBLuwptcPYfFXf7IyfkbLdoZ0dx03aapShHELmDuM44Nz9bPv4mtEP2f36kaf8ckjdLuMtSw9kpsLGGkVdSccSrzlTz3tRa+XI39hHBgvqa9HH6N2esrb7UfTeH9qoy/IzsY8ru1oxmo460sLy/EjP7Xjb1p2Wmb3q1ouq4+1N93wJMJvjj3/ACwQhdot0gPUNo6mXn6FmiuOUkuBPjndzO9msK/BY8irKL82VNbOU7qUHCcG4zjWpNSXBpKSyehfoE2the6Rp9eEs4tqMJ/ehSjCXx4Z+J56Irn7pP4pcPmTCdlft27rZz0M55r0a1RbveocNz4cCnlnZZhe7do46rxx8PzwXpltWGVgyr0OfaqbARstctq0E8X0ZTk+7KbT+aNLpPn73+JLB2tOwiqaZR1Hdz9Fe5vY+rvyb5+ZE8llR/ein58TZhd4s+XlkXq+7By1LWbC1hxcLilWa8VGabR6D9OtdyMIpYUacY4XJYSIg+yt6O/pGvTv5R3qVGjOCXcp7r3X8HhkwlFc8+L8u4p5b3WYTs5Tjqy5e9fN4OQ/Nd3KipSk8RjGUm/Ddy35LLKViLrtcek11Lm10dS9VRhXcU+GcJ8faiO5yy8+xfLgZX60vSXLVddvrmTb9DWqUIv92Mmlj2GKIo24TUZrd1UAE0QAAAAAaGXy7vAADl0y8nQlvUJyt5/aptqWfHh3mZ+irrk7QaQ80b2reY5QuJOUV7PW7jCYaOaldSX9FXa6U1FLW7bck8Ju3WfjhLBtv0VdcvQNW4W95CjJpNKu40m893rSxn4kDKfufvWfxKY4p5nFrk4ScPwaK7xypzOvShpusU6sd6lUhWXjTlGcfOMmvmftU18fDvPP10ZdabXtJlD6FfzhSTW/TnJz3ornHi+9cDeroP7WihXqRoavau1ppRjK7zwb4Jvdzji+JTeOz+pzOJHQdc2I28tNRt4XVnXhXoTWYzi95/Fc18TsSZUsDjrUk85XNYfti+a+JylGgIje0w6q9PTK8dasqeKF1Pcq0oLhGpLDlNpck2+ZonJY4e49DPTz0Z0tV0u8s6kVJ1KNRUm1ncnu+rJeDTXM8/W1mzErK6uLKb3p2tScZSfN8Xg18eW5pRnNV8wBAtVgAAAAAAAAAAAAAAAAAAAAAAAAAAAAAAAAAAAAAAAAAAAAAAAAAAAAAAAAAARXF/dk/JEpfZD7HQ/RtxqLXrTqSpb3ik+Kz7OBFpT5v7svmiYrsq7JQ2UilydzXfnu5KuTwsw8t0oRwXFCpkXraj4P3M0S7WDpNnZaNa28G83lV06kU+cMR5+zOTe2ZFt2wNeTqWMW8xUlheHwJ4f5RDK9kdXoVH1VwUeS7lniXFZ838PwKG1nAAAAAAd696/EFrfCT+zFvyA327HzSXPV9Wq7vq06McPubk1Hh55JZbeWUn/XNmgXZLdHbpabX1N5Ubt7iTWH6kk3+Rv/AEo4WDHyf5NGPheW1OTLiyq+D9zK02kvaov/AOyw+8yHulyj7iWrtZtonT0u1oqGVWlJOX2cES0Y4wvBYNfF4UZ+VwALVYUmioAyv1WelL9D67ZXvHFSpTt3jwnJRefZxJ/LC8U4wkuKnCM01ye8k/zPNdbXO5KFT+5lGr/C8k9/VC6Qlqez2n3e9vb1NQffJbjUePwM/LPa7C+mbSypHPmn5cS4MzrUZna+bAKNO01ZLjmNDe71yws+40F6JNif0hqlnZfbrUanlJMmT7QDox/SWztxDd3vo36/3bkeZHD2a2xP0zaa1u2m6dtGpGUcZi5RTUW/c+Jpwv8A5/0pyndNHs5p3oqFvTSwqdClDH3acI/kfWOKkuL9/DyRyNmZc+FtltBG1tbi5lyoU6k34cFn8cHnl6VNd+lapqVzvOSuK85pvjw3u4m068O3MLHZzUcy3Z3NKdKl470lHPyXzIHrVvchvPMvW3n3vLNPFPNU51zxABeqUl/h5m+/ZJbfShq15pzaVL0DqQzwzLnj3mhEkZl6oXSC9N2gsKiePpNaFFteDljj7CGU3KlPKfag+HHxf4l5xxqcfZhPzbOUxNLBHXP2D/SGzl9bbu96vpMLi/U3pZ+ZAzL1ZST/APClKn5No9JG0FiqlGvTayp0akMfehJfmjzz9K3R1UtdTvNOSfpal3KcF34lUbx5GjivmKc0n/ZO9HjtdEubicGqles3GTX7DUmsPwzg3sgYr6s2ySsdD02hjEvo9Jz4Y9aUMvy5GVUU5Xdq2TUGzCfW+6R/0Xs/qF1nE405RguTbnw4fDJmqryeOeHgjX7XXpWlTp2GnUZ5VWUvpMVyS/ZyvdxGM3Y5ldRGddXrqylWfOvKVWXvk8lpRxw8LlHgvcVNzMAAAAAAAAAAAAAAAApulKiysSW8vCXIuAGa+rF1nL/Z+/o1aVac7WU4wrW823QhTbxKUYvgmkTn7B7a0dQtKF5btSo14RnBr97n5PgecGpDKkvFYJhuy022q3GiytqknKFo1GmnxcU+4z8mPtbhfTdsqW03wRcZ1ziqQ4r/AGvyIK+vnsVGz2kvpRjuq7qSnjkueeBOu+a+JDT2pj/+/wBH7rLeLyrz8NOIlR4+9g1qAAAAAAAAAAAAAAAAAAAAAAAAAAAAAAAAAAAAAAAAAAAAAAAAAAAAAAAAAAAKa4v7s38iYTsotR9JsovGN1XTX8OPPiQ9p8X7n8yT7shtsY/RLnT971oydXc8Fl8cfEq5PCeHlI+VLKb/ADLzI0LanL3fyI1O2I2Yf0bTbuEXJyrbk33RSSefJkljRgPrm9C/6a0S5oxWa9CE6lvHGd6cVHC+Kz5EsbqxHKbiB+r9Z/D8ChzahpVWhOdCtBwr0ZSjVg01JNPHBPuOBM3MyoGRkABko/L2vl5gJSO2dFfRtcatqFtp9rFyrVKkJSWM/qVJOo/co5Px7CbAXmpXNO1saMq9erJRg4pyo5fD1pJYWPaTKdSvqXW+zduriuo1tVrRzVqvEvQKSe9Tpv7PdlFeeWk8cds69EnRzQ0vT7axt4KFOlTjvJf3m7H0j+M0zuxbGJcY2gLanJ+4uKMDR7tVNCdTRqdXHClJvz/AiApPhF+KJ7euT0ePU9ndRtoxzUdOUqbSzJOLzw+GSBatZuk3Sf1qDdOXjmLw8+01cV7KM53UABcrAABbu54fa4P4koHZEdJEqtG/06UvVtd10ot8FmS3sL3cSMBv5GxXUI6T56btJYwUt2jeTUa79jwuJDObiWN1U6NF8Echw0Z549zw17msnMYml13bnQ1cWd3Qa3lWoVaePHepuPD28TRvsxeiJ6bX16NSGJUrpxpby9eMZOT5+5EgkonXdnNhKFrVua1KKjO6lv1ccMtZ/mSl7WOWd9uw0nwT8UvwK1OXn+BWKOOt3Y8VnyZF1HX2v23Mqdhp9nSfryr71X7jUUl5p+ZF1US3njksY8jbftONuXc7TVLVT3qNvRg0s5Smore+eTUeLNmE1GfK91QAWIDP3bOap6C5trhcHbVYVE/BqWcn4Tir08xnH7SwgPRJ0IbYO+0mwu28uvQptvx5r8jv5qH2anSJC82fpW6lvSssU5fu82l+Jt1CXAwWarVPCyr3e1pfDDIpusN0MOfSPYbsM29eVKU+HBd8s/FryJXJR/Exvr/Q3RralR1FxTq08cXzWOWDuN05Zt33TrSNOMacFiFOMIxXsSx+B+0tUeL+BUik4bmqorebxGKbk/BKL4/n8CCrr29JT1LaW+cZb1tRe7RafDK4MmN6w/SBT03SL66m+dCrTh96dOUY/jn4Hn2v9RnWnUqzeZzq1JNvniUm0X8U9qs76cESoSBpUgAABspJnc+iLolvtbvo6dp8FO5lFze9wpqC4ybfJYXHiB0zeK5NoekHs6NprGi66oU61KCzV3GpVFjnuxWW17TWvV9DrUJuFejVotd9WLhHhz4tI5LL4d1p+IFI+xqX3eJX4M64AZGQAGRkABko3/XcBbUnhSl4LLJeOym2OnQ0ercyTULqUXBvk93ngjC6FeiO61vUKFhaUpVN+cfpE0m6MaO96/rYxvJdxPj0R9GtHSdPtdPocKdvTil7Zc5/Mo5b20twnt3KkuC9xeURUzLlkpcV8SE/tJtoPT7Qzj/cNxJndotZhb0atxN4jQhOcm+Cwo5eWefTp/2wd/reqXe/vwrVpul3pJN8i7infavN0Fd/vZUpEqalAAAAAAAAAAAAAAAAAAAAAAAAAAAAAAAAAAAAAAAAAAAAAAAAAAAAAAAAAAALZI2W7Pzpnho20NOVXLp6hu2yXcnJ4T8zWs5bG9nSqU6tLhVoyjOi/CaeUzlm47Lp6VKfgvf5tnKaw9RXrL0tf0qnGc831pGNO5i360mk/WSfFr2o2cjIw2a7NMu1xZOH9dxeUOOtH+uP2d9HWpSv9MlG1vsSlUWMRrNLOEksKT5EYu3PV51vTpzjdabWpwi2vS7rcZ4f1lw5PGT0MuB83WdnqNxHcuKUK8fszipL5luPJYhcJXmzvKkabxUc4PwcH/I/RZWUqrSpRnUb5JQfH5HoQver9olR5npFnN+LowZ+ix6DNHptOGl2kGuTVKCwWfr/ABD80EezXV5127aVvpVeon+1utL38ja7oS7KrUbqVOvqddW9DK9JbNP0jXDK4Lhw72Sv6fo9Okt2jThSXhGKS+R+z0fjxfkQvLfSUwjFnQn1bNI0Cl6LTraMG8b1SaUqra5tSccxy+OF5mU4xx/XFlx+TUNQhThKc5xhCKblUk1GEUueZNpJlXlY/RUqpJttJLm3wS+JWnUTSaeU+T8SKjr2dfurcVXpuiVXCnQqJ1LiLw6kov14prnDg/M3f6nHTdR1vRbatGe9Vt4QpXCz63pIxab8ePFkrjZNozLd0z2CiZUgk/Pc0U000mpLdafFPe58CC3rzdCD0TX69KEX6C7zcqpjEE6nrbqfLhnGCdiSNP8AtJeh6hqOhyrvdhWtX6RVeG+1FJ7meeOHL2lnHlqoZzcQwwLiyM8rPtx/Dw+ZebGcAABn7ND2gnaVqV1T/tKNSm4/xLJ+MpGKzh8uL+K5AeiDoR2ujfaVp9zGSlv21J1MPOJ+jSkn7d5HfkaI9lH0nSu9Fq2laX6+jWluLP8A4eML8je2LMOU1dNUu4uKYKgi6HzNdvVTpVpt4UKNSWfDdhJ5+R9Mwl1vdu/0fs9fXOVF7jp8XjPpN6OPkdndyoQumjbJ3+q3t1J7zderTT58IzaR0qJWtPLnL+8nKp/E2wbozAAOuBWm+K9/5FC2YEh/ZB7dqjV1DT5vjcT9JBd+Y/4Nkp1Lw8ML5EEfUR21VjtVYVJycaEouE0uTc+CfzJ17aaa3lyliS9zimjJyTuvwvZ+gpgqCpYoUnIuOOfHh8fJgaC9rJ0lqjpFLTacsV61SNR8eLhH/qyJ6Xd7o+febS9o50nLUto3uT3qdnF0HFPMVKPDj7cmrMP5mzCajPld1cACxAAAFH/M3w7Jmxi9Wr1GvXVGolL9pJxfDPgaH/4m+fZLXMVqteGVvOlUe7343Xxx4Fef+NSx8pY1QynnMllrEuMfiscjG3Sv1ctH1mmqeoWdOaWUnTSpzw/3owy/iZOpPn72chjaUb3Sp2RlGrKctIvFaQ5wp1E5NezexjzNXNvezx2jsXJU7eV7u5401nex4YJwZUk+4Si+54+GfzLZyWIXCPOzqfQhrdDPp9Kr0muacXw+R1m62fr021OjUg1z9R8Pkej3UNAo1f7WlCp470U8+Z1q66HdKm256dbSzzzSg8k/1/iP5vOwkv3/AOB/yOe00+dR7tOE5y8FB/yPQiugLRf/ACm0/wBzA57PoP0eDzDS7WL8VSgmP1/jnQgW0DoP1q7ko2ul167bS4RfDPfy5G0PQt2Xmr30lUv6n0GlFxc6U03KafOKws8u8ly0rZyhQWKFGnRz9iCX4H0fR558fkRvLUphGLOgfq4aXs9bqhYUIxk0vS1ZJOrKWPWak1lRb7kzKyQKlO1gWyZWTOgdM3THZaJZVb6+qqFOnF7sMr0lSfHcUI5y8vhlAa2dph1hXpOkfQ6Ek7m/zSqwT9eNKajmXiskOMKO6lFNtLLy+Le9xeX38zJHT7023WvalWv7iTxKUo0KefVVFPFPh3S3cGOYo24Y6jNld1UAE0QAAAAAAAAAAAAAAAAAAAAAAAAAAAAAAAAAAAAAAAAAAAAAAAAAAAAAAAAAACjRUAZG6BOnW72fv6V7aye7GSVWkuVSLaUsrPF4yTddX3rH6ftDaxrWlWHpt2Lr27fr05YW9w71k8/x2jo66Tb3SbiF1YV50akGpbkZNQq4/ZmlwaZXnh1J45aejWE8lxHr0B9qrZXEadvrdN0Lt4SnSWaL7syfBJvnk3Y2W6WNOvIQqW99bzjNJqKqQ317HHe3s/Ay3GzyvlldyBwxr5WY+sn3prH4l3pH9l+a/mRdcgOL0j+y/NfzOO4vYwW9OSprxk4pebeAP0ls54/rJjvbrp60nTqUqtzfW+IrPo41ISqv3RjJvzNLemntZrOnCVLQqMq1xFtSlXju0/D1eaePElMbfCNykbzdJfSrY6Tbyub+4hb01ndcnhzaWd1Lvb5ETfXD7QS61xysdO37TT45jWw8VLjDeJRksYjx5I1z6WunHUtbrSrX9xOak2/o+8/QQbefVXLgdCS+XJeBox49eVWWW1Mvnx7+L5v3vvZs91Cusk9A1WFOtNqwu2qUoZ9VVZvEZeCw3nJrHgtx/g++L+0v3kW2b7IS6elXT7yNSMZxalGcVOMlxi4ySccPk+B+pkU3Up7RWnp9CnpWuSnOlDEbS5XrVMZXq1X9lLllm0fSf2kWz2n0HUjUnXquL9FCmspza9TeabxHOM8DHcLLpomUbObVbW29lQncXVaFChBNyqTe6lj3/kRT9fXr4U9YpvSNKTjbwnvTu8+rWiuG6vY1+JgDrHdbTVdo6+9c1ZULaLe5bUm40pw47u+lzePEwkl3JYX2e5F+HHrvVWWW/AvJfn3v4lQC5WAAAWyLg0Bt/wBmL0ofQdoJUKs922uKLhFN4XpZcE/PuJmqP4tvzZ5tNA1yra16FzRk41bepGrDHDelF5UZfuslS6H+1Y0itQo09WhUo3yio1HTjvUXjHHOVht5fxM/Jjbdxbhl6b/A1O/ykezH99V/g/8AkU/ykmzH99V/g/8AkU9N+LOqfW19SWFk0F7WjpGjS0ujpmcO8e+sPDe5Jr8cndNoe1D2XoRb3q83h7sYw5vuTeXjj7CMvrTdYyvtLqLu6nq0KTatYeEG3jK8f5lmGF3uo5ZduzDkVwivsxS8uBcUSKmpQAAAGgAP3bP67Utq9vXpPdqQuKPHwjvx3vkeiHow2mp3lhZ16c1OMrejvNPK3vRQU1nlneT4e0852Ofu8vb70bydSztCqOhWf6M1hVKllDMqFaCc6ylJpuLXB7qwu8p5Md+FmF0l8BqRadpZsvOMZelqpSWcOHFe/wBY5v8AKR7Mf31X+D/5Gfpvxb1T62xOldLu3UNN068vptR+j0ptN+P7Pz4/A19ue0r2XjFt1arS8Icf+I0066HaDR1yh+j9KjKFjLhWlNbs5/4ewlMLb4cuUab7Ya19JvL26y2rqvOqm+POWfI+WiyEEkkuS5F5sZwAAAABSaMq9WPpvqbP6xR1GCcotehrR7vRS9Wbx91sxWUx/Xics269DnRF01adrVvGvp9zTrZUZThvetCUknJOPPg+BkBVO78uB5xNiukG906pCpZXdW13Wn6OnJqE2u6SXDDN4+h/tZ72go09YtoSpQSj6Sks1ZJLGXj9rBmy476XTP6lbBrB0Z9oRs5qW4qdeVCU+6slBR97bX4GetI6QLKut6je21VfuVacvkpZKrLE9uyg4IXGVmPrrxTWPxL1N/Zfmv5nHXICzefh+Acn4fNAXg4nUf2X5r+Z+S/1qlT/ALStTpffnGP/ABNAfQLJT7u/5eZhLpY63uhaRTcrm8p1cZzGhKNWax3YhJrPxNF+nrtW69ypUdCoqNvNOEq1VbtePc3HwffwJzC1G5SN+OsD1l9N2etpVr2rF1d1unbRlmpU8Fjuz7SGXrN9aC92mvXcV5Sp2sG/otrl7tKOeG/HOJN+LMabW7Z3d/UdW8uat1Nycl6WTluZ7o57kfF/rJpxw6VNy2Y/r+u4qAWIAAAAAAAAAAAAAAAAAAAAAAAAAAAAAAAAAAAAAAAAAAAAAAAAAAAAAAAAAAAAAAAAAaAAZ/649bz5n09nNp7i0n6S1r1qU/H0kt3yzg+YMAZu2f67G1lst2jqzUPsvj+J3S17R/aiMVGV7vSXOWOZq5ulcEemfHd1szqPaK7VzeYah6NYxjHf4nQ9petztPeRcbrVZVIvmovd4eHBmIcDcQ6Z8N1+jVNQnXn6WtUrVKj73OTj5N4OBv3fBYfmgCThgAAAAAT/AK7/AIeHwKR4cuP3vW/EqAKJFQAAAAAAAAAGBvexeXHz5gAMlMlQAU/YvisjAAAAAAAAAAARePD4rP4gAN7+sFMlQAz/AFgN58PgsAAEAAAAAAAAAAGAv6zxAApNZ55X3PV/Bo+1s1tnd2f+aXNal38aknx8z4waAzVs71z9q7VKNDVnGH2Xxz5s7/p3aTbTwxv3fpPhzNVd0rgj0z47ut0aPao62opOGWub8Thv+1K12aW4txrm/E00y/EZfic6MfjvVWy20XaI7WVm/Q6j6Be7kYt2p6xGu3rbu9RqVXLnuycc558mY6aG6d6Z8c3Rri5b1SUpPL35Oab9zbKy4+Hw4fgAScMAAAAAAAAAAAAAAAAAAAAAAAAAAAAAAAAAAAAAAAAAAAAAAAAAAAAAAAAAAAAAAAAAAAAAAAAAAAAAAAAAAAAAAAAAAAAAAAAAAAAAAAAAAAAAAAAAAAAAAAAAAAAAAAAAAAAAAAAAAAAAAAAAAAAAAGSm8gKgp6ReJT0iAuBTfQ3gKgAAAAAAAAAAAAAAAAAAAAAAAAAAAAAAAAAAAAAAAAAAAAAAAAAAAAAAAAAADjrV4x4ybinywt75IupTUlmLyvF8PkwLgUTKgAAAAAAAAAAAAAAAAAAAAAAAAAAAAAAAAAAAAAAAAAAAAAAAAAAAAAAAAAAAAAAAAAAAAAAAAACmQK5BWlTcpqmlKVSXCMIre3m+SyvE2P6HOoLr+r+jlKhKwpT5VaiwsePE5bI7rbW5vxlGP3ngvhQk/q0qtT/0ouefdhErfRZ2TGmUOOr1nfJJcKe9T4+/dzj4G0HR/wBVTQdNjFWtjTW59X0iVTz3o8fiVXlnpOYVBVs30X6jdvFCyuc/v0pJfNGSdH6lG09fHorL63LeTX4onat9CpR+rQoR+7CK/CCP3QoJcope5JfkQvLUvzQf23ZwbZSeFZ0F96SivN44n6P8mptp/qtp/vYfzJuHR9svP/Ap9H/el5/4HP1v8d6Ig0vez12wp8ZWVLDePVeePw7vadH2i6rmv2jar2M8x57kXJfJHoGVP3v3nBWsYS504S+9FP8AGLH61zojzc6poFxRm4VbW5hJc3KnJQ82sH4Pis/Z/a8j0YbV9Fmn3tOVK6tKE4vvVOKn/EoJmpPTr2XmkX1GctJX0G94tTk3KnLg3u43VjLWM8uJOcs9o3Cohsg7J0ldH1fSr+vp1ysXFu3vrllJ/W9z5nWosvQVAAcAAAAAAAAAAAAAAAAAAAAAAAAAAAAAAAAAAAAAAAAAAAAAAAACyrLEZv7MXJe1ruLyjXl3rxXgBKX2dvVQ0a50Wjqt5RheV7veUqVVKUKWGksLOcvOfI7R1juzF07UIzudLf0W7iv1dBYjbS9/H3c0agdSHruy2cqOzvISrWFeUVFp8LZtrj7vEmJ2L21ttQtqd1a1Y1aNSKcZweWsrOHjk1yMuXVjdr8dWIBOlvoE1XRK7oX9rV3k3+tpxcqCXc3NLHIx7H2POObXFL/E9IG1mxVte0Z0LqjTrUpxcZKUVKWH4PGU/aiO/rJdlapSqXmhVPRww5fQMNucnxeJYxz7izHkl8oXD4jQTB2fpC6MdQ0mr6HUrWpa1MtJbraftzjCydXa/rOS5WqAmAAAAAAAAAAAAAAAAAAAAAAAAAAAAAAAAAAAAAAAAAAAAAAAAAAAAAAAAAAAAAAAAAABSTAN/wBfl72bBdWvqXartHJTp0pW9kmlVq1U4ScX3097GcrisGKOirR7a41G0o3k/R2rq05VJvgk1JcH7Ce3ZfbLSbW0t4Urq3p0YUaajuSjBNRhFZaXe+L+JVnlZ4Txm/LGfQH1FdD0KjuxoRvqzabr3EYznBrnu5bws/HgbG0bdRSisKKSSilhJJYSWPBGLdW6z+z9F4q6rbwa5+v/ACizpmr9fXZaipOOq0qzj3Qecvwy0vwM3e/V3aNh4xS5Y8yvpV4rzNO9e7TvQaSTpt1s81Frh8jpOs9rdpdNtQsa1X2qS4//AKnei/Dqjfr0y8V5op6ePivNEcd/2yFjH6uj3M/dJf8AIfifbN2n/kdz/Gv+Q70ZfDqiSr0q8V5ouUiPXS+1802bSlptemsZy5Lh7PqmW9gu0f2cu1+vuVZN8F6R9/vS/I50X4dUbYA+HsntfbXtGNxaVoV6MllVIS3s/wAvifbIJKnFWpp4z4/kzlLKj5e/8mBDN2oWzEaO0M7lL168IRk+WcLBp4kbsdqrqO9rUaf2IxfyNKO9m3DxGbLzQAE0QAAAAAAAAAAAAAAAAAAAAAAAAAAAAAAAAAAAAAAAAAAAAAAAAYAAp4rufNdzNj+qZ10r7Zqqqbbr6fJr0tKTcnTjnj6NPlJLwNcSn9ezyOWb8uy6eiHoc6ZbHW7Ole2FRVKVRJunlelpN81OOcr4nenFc1z8Tz4dB3WI1TZ+4VewryhTlKPp6DeYVY5WUo5wvgTJdWbrf6btHRhGlVjTv40061pJ4ksfWkvFPi8Iy54a/wBL8ctsnbf9E9hqdOVK9taVfei4+knCLqRTXBxljKa9hHx099lA1vV9n63rPelUpV5L3uMOPH2JEm8ZZEoZ8fhwITKzw7cZXnK276M7/Tas6V7a1aO42nWnFqjLHNxlyaOsU3njF7y8VyPRX0j9E2n6rR9DqFrTuafcnH1ln95cTRvp17Jy2ryqXGkXLtd1OULTHqyfNR3vHu4mjHkntVcL6RcbxUyT0ndXHW9Hc3qFhUpUotqNSEXPeS5Pgu/mY1jx4rh7JerLyfEt2gqCiZU64AAAAAAAAAAAAAAAAAAAAAAAAAAAAAAAAAAAAAAAAAAAAAAAAAAAAAAAAAAAGAAz/Xt8T6z2wvMKP02vupYUd+WEvD3HyRgDkubqU/rydT7zbPyKwpd1KK+JzgCyNGK5RSL08cuAyI8fD48ALlWl4tFfpE/tM4J1kuaqv7sHJeaRdCafJSX304v4JpZAvc338Tgq2sH9ampe9nNkMDYDqcdYXUNI1qwp07mpO0u6sKVa3nJujTg3jMU+CeCda2uFJKSeYyUXF+OeP4YPOZ0YRzqmmpc3cQ/4keh/Y2DVpbJ81Sp/8Jm5Z3XYV9w4qvOPv/JnKfg1e83KVaf93SnP3bsJS/IoWoTu0e2ldbay9o8HCjThhrxxx+Zq/AyL1htqvput311nO9UnDPP6smuZjuCN2M1Iy3yqACTgAAAAAAAAAAAAAAAAAAAAAAAAAAAAAAAAAAAAAAAAAAAAAAAAAAAAAo0fY2Q2wubCvG6s6kqFeDTU4Nxc8P6s8c4vlhnyCjQEs/VD7SG31H0Onaw1QvmlGNxwjbywsLek+G83jib32t7GcVOMlKMkt2cWnGWe9NcMHmrhUaxhtYeU1wkn3Pe58Dcfqndole6LKlZ6k5Xdg5KM6sm3K2hyyuPHC7jPlx+5/wDFuOf1MqWumuff4950zoy6W7DV7eN1p9xC4oyzyf6zx+pnK4fgzukZf13+RnXPm61s7RuIuFejTrxeVu1YRmsPnwlF4+BqT01dmdoWp+kq28ZW1296VPceKKk+KzFY9U3KKNHZbPDlm0IHTN2ee0GkJ1VBX9Jt7sbdb08LllLjnBrVq+k1beThc0p2s1zp1YtSXmelHca5fPL/ADMWdJHVm0TVfSO8sKVSrUTTrbuJpvk85xwfsLpy/Vdw+PPxGLayuK8e4pvEl/Sx2R0JSnX029lye7bS4Rz3LPLHcab9JfU/2i0lTqXli/QQzipTTnKSXfhJ9xdM5VdxsYZBRxffCpT/APVi6f8AxJFfJ+7j+BNEAyMgAAAAAAAAAAAAAAAAAAAAAAAAAAAAAAAAAAAAAAAAAAAAAAAAAAAAyUz/AFgCobHxXuz63kfS2e2ZuLup6K2t69So+X6uThx5etjAHzY8eXEsqVEniUt1vknzfkbedEXZn69qM6f06CsbWpHPpU/1iT/d58jdroZ7MrRNNUXdr9I1IvKlUXDPdw70V3OROY2ondieh3VNRqQhaafcVIzaSrqEvRRz3t8sd5u70M9kxc1JQqa5cx9A0pOlReKq70n4PuJM9ldjraypKjZ0KdvS57kI7v4Pj8cn2lT7/wA+HlyKbyX0smEYc6P+qZoWn0VRo2FGrFLG9WjGpPHva5mHetz1GNM1GwrV7O3jb31CEp0VSSjCW7zUornw7zcaUv67zEvWR6b7XQ9MuLm4qRjN06kaNNtb85STS9XOccclct2lZNIAr+0lTqVacvr0Zyp1PvxeGcMj9mu6j6a4ua/+s1p1seG9LP5n42+XvX4m5mZH6uGzMrvX9IpR5K5g6nu3j0HWlFQSgvqxjFL4cPyIauy96P1fbQVpzXq2UFVT7s92Pi0TN0pZ4+P5My8t7r8PC8xP1mekaGl6LfXcnjNGdJP21YTgvxZlapPCz7vxI9u1o6WVS0+jo0Xid01WbT44g2ksefmV4zdSyuoisqTbdRttudapUy+frybX4lUU8PYkvLgVNzMAAAAAAAAAAAAAAAAAAAAAAAAAAAAAAAAAAAAAAAAAAAAAAAAAAAAAAAAAAAUa7u5813P3oqAO99EHThqehXcLvTq8oThwdCTbtXB8JZpv1W8Z7iVnqudorpmtJW17NWN9CMd+dRqFCtPhlU213+HuIanEqpcYy470HmDT3XF9zyueCGWEySmVj0rW15GUVOMlKEknGSeVJPk1juZzkK3Vt7RLVdEcKF1m/tMxUnUb3qNPPFxec5iu4lN6E+s9o2vU9/T7qMnhOVOo1Cak0t6KjKWZYeVw8ORlywsXzKVl0Fkanw9/AuIJKbnwPz3mnwnHdqQjVj9mpGMo+UotfI/UAMF9LXU40DWFi7s4Qb76CVJ58fUhj8DUDpb7IzKb0S7VFLioVuLfszyySZlkqaJzOxG4yoFukjqW7RaZJxlYVbyMc5qUotx4c3w7jC2saXUtnu3NOdvLluzi8p+B6UZwb8Md6azld/eY42x6u+iX+8rrTbeq5ZzNwSkm+9NPn8Cycv2IXD489dJ731XvfL8SsuHPgS+dJXZVaLe7zoV6lnJ53Y00tz2J+tnHuRq70hdlRrdtn9Gyp3KWcekkk2vi+fsLZySoXGtJN4qZT286sGvaZ/nljU//AMoOfLnyRjCrZVItqVCvTxwfpISivmie0XGCmV9qK9mePkF5+7idcVA+D8hkABkAAAAAAAAAAAAAAAAAAAAAAAAAABkABkYfg/IACj9rS9/ARWeTU34Qe8/JAVyU3z6WkbN3NecadG0upzm8RapScPi8YM47E9Q3am/w6NpCFPhvSq+phP72OODm5HdNf402+S/A4Kt1CP1p7r8MZ/AkX2B7ISdZKWpXs7fk5RpPe48MpcUvNm1XRj2euzunKPpLaN9KKSTrxUuP2mlLn8Su8kSmFQz7OdGOp3m79D0+vc72MOEHjj38jZbou7MvX9QxKrONjDCclVXrLPdjnn3EwWzGwlnZx3bS2pW6SwlCCWF4c8/M++6eefH5fmV3lvpOYNF+irsqtFtVGpqTndXEXwcJONPh4rdefdg232M6JdOsKUaNrZ0Iwjyk6cHUfvk4OXzO5RjguKrlaskkccaXl4cML5ci6MV4Fxa5f9O8i6qWSqeHHHPuwdV6Quk+x0y3qXN7cU6NKEctOSVX4Q3lJv3IjA603aa3OoKpZaLm2tsuKvU2qslxWMZ4LHh4k8cbkjcpG4HWn6+umaBSlTozjeXzUoxhSamqM+S9Jhdz44Ikumzp81PX7j6RqNZyabcKUW1RjH9lbvLKXA6Bd3s6k5Vak5VKs23UqSe85t83xOFI044TFRctiHj7It/FFWfp0jSqlerRo0ouVSpWpR3VxbjKSUvhgsRSrdkz0aqlpVXVJw3alzKVPisNxi18uRv7COEY+6Ctg6enaVZWkIqKVCnOSXD15whKfxz+BkGTMOV3dtUmo469VLi3iKTbb5LHj4f4EE3Xl6XZavtBdSbzCxnKjT+y4p44d3kSl9evp4p6Hodd7+7XvYzoW+H60ZyjHj48E/myDe4uZzbnVe9Vm5OpJ85NvOWy7intVnfSyJUIGhUAAAAAAAAAAAAAAAAAAAAAAAAAAAAAAAAAAAAAAAAAAAAAAAAAAAAAAAAAAAAAAwABT+sdz9/sPtbI7ZXVhWhcWdWdCrBpxUG408rlvJPDPjBoCRLq3dqbcU5wtdfgqqk4xVzTSjGmuSlN444XNskh2D6S7HUqXpbC6pXUODbhLO7nkmsZTXI85bXBrufNeJ2/o56WtR0mpCpYXlW2jBpujCT3KmHnD9jKcuOXwsmdnl6LozLiNXoC7WCnPdo7QUfQfVhCrSW85NcFKSyufwJANiOkmy1ClCtaXNKrCcU4xjOLqLPc4b28n7GjPcbPK6WV2oFiqePD3l5F0AAFu4vBFsqXtfw/6HIAPyXWnwn9anCf34qX4xZ0TbXoC0i/ji6sqLzzcIRg/OMefwMjAbGn+2PZibMXOZUbedCq8+spNx8nFY+BgfbXsgaksux1KFHniMoyefBZ3cL4km7RY6C8Cczs9o9MQubYdmTtBaLMH9L9kEYc2i6rG0lrJqpo1fcXKpuvdZ6CHF9z+RxVLfKxLEk+5xWCc5aj0R5wdU2KvKDar2tWlJc04Ph8jr36QpZxvyyua3GsfI9HOq9F+nVm3Vsbeo3zcqcW35nStb6puz1x9bSram/tQpxi3nxxlE/1/iPQgAp1Yvk2/hg5VQl3L5omq2t7NzZ25ziEqHHP6vC/NGMtY7H7QajcoX93CXck47ue79vPkd/WOdFRROk/BeaLWSVax2PVKK/7vfTk+7fePxOl6z2SuqR/zevSl96aX4sl+mLnTWhDkN9G5ur9lXtPF/qJWkl+9Uj+bPgXXZi7Yw507SX3Jxkvk+Z3rn1zpvxqjvob5sr/AJO7azl9Hp+HkfLq9RHadNp2qyuD4cPgd6p9c1Wv2+N8z/8A/QptP/qq8mP/AKFNp/8AVV5MdU+mmAN8b6NgafUR2nbSVqsv2H2Lbs59rZtJW9JN+PBDqn01Ws2+gpG1tv2Yu2Mnj0dpH704xXzZ2HTuyr2nf9rK0X3akf5nOufXemtMkmXKlLwXmjfzS+yQ1CSXpriEX+1uyT9+OJ3fSex2tH/nF/Vj91+fec/TF3pqMyVFrmvmjgncRXOTXwyS3aF2ROgUcb17d1HlN7zjj3fX5GVtm+z02dt85oem5fXSfL4sj+sd6Kg6t7unOW7GUpSfKKg/5HbdJ6LdTuP83sK1b3Rfw7iePSOrPoNBRVPSLTMcYm6UXP35bzk7rpOxFnQ/sbWjS+7CK/Aj+v8AHehBPsv1ONprqSX6Ir0YvlOSeDN+ynZQa7cxUql5C15ZU1lr4LiTBqD8fl/iXOnnnxI3lqXREd2w/ZGWtNw+n3f0hLG/uJxz480jPGxHZ57LWMt+lZSlPvc5OS8nDHzNmY0ki8hcrfaXTHWNA6O7K1goW9pbwiuT9HDe/i3GzsMLdJYS3fu4X5HMCCS1Q+Pv4lVEqAABa5f13gXFspYPxalrFOlFzq1IUYr9qrKMI8OL4yklyNO+sD2l2k6X6W3sH9Mvo5Sj/wCBlfvp4fHwwdkt8OW6bh6vrNOhTlVrTjSpQWZVJPdjFeLyaNdZHtQbDT51LTSo/TK+N2N3HEqEZd/dxw/HyNAOmzrga3rtSU69zO2pSypWtKTVFp92Fw5GE6UFHKit1N5a55b5vLNGPF9VXP4710r9NGpa1cyub+5qTnJvFOMmqGHyThnB0VL4excF5FUipeqMAACkl3GzHZ7dGEtR2ltarjvW1um6vDMcx4r45NZZVd1OT5Rw/wAiXbsrehp2OkVr6cVvX81Upya9ZRw+C9jb+RXndRPGbreWjDHDko4S9ySwW3dwopybSUE5Sb5bsU3Lj7uJyJ4Xl8TSvtGetR+iLF6baTX027i1mL9anB5Uk8cm0+8ySbul9umjvaFdPn6a1qdClU37C19Wmk8x9NDhN+HGS/A1aTzxfeVq1XJtt5lJuU2+OZN5lx94Ruk1NM1uwAHXAAAAAAAAAAAAAAAAAAAAAAAAAAAAAAAAAAAAAAAAAAAAAAAAAAAAAAAAAAAAAAAAAAABgACmfYn7+OPdnkdr6PelTUdKqel0+6q0qjab3pt0+D7o5wkdVKOIdSG9AvatXFF07fWqLuXJpO5h6qh4t8OKxxZv50U9ZfRtZe7YX1KrVxl0t7Ek+9Y78cuB598vl3eHcfr0LWq1rPftK1S0nlPfoycZPyKcuOXx2Tmdj0nueOfyy/yL0yFPod7SPX9LUaVRRvaHDfnWe9USXem+OcG83Ql2luhapOFvXlK1umvWc1u0M/feMe4puFiyZytxwfD2f2ytbpb1vc0bhPl6KcJfJSbXxPsqfjw97RWmvBSMioAAAAAAKFQBTdKbi8C4AWuJa6XtfmcgA4nQ9svMRoe2XmcoAt3Sno/Yv6+BeAOP0fsX9fAej9i/r4HIALPR+xf18Cu6XADidD2y8wqHtl5nKALFT9r8y7dKgC3cXgV3SoAAAAAAABRsCoLPSru4n4tS1mnRjvVqsKK8ak4wj5ykl8wPoFjqccd/uePPka8dL3Xm2e0duNxcqvKK4q3xV4+HqvHs4Gj3TJ2r2o3MqlLSLenC0qJxjWnwuIp96zyfuJzC1G5SJQdu+kix02l6bULqla0+6c5Y+WG/JGl3T92p+n2TdDSqbvpNYVxF5pxfj5+JF/tf0k6hfyk72+r3MZNv0VScnTjnuSfcdapQUViK3V4LkXTintVc/jMnTH1tNe1xyhe3kvozbdOlSbpygn3PdayYcz8f3pcZ/wAT4jdKl0mkFMFQDrgAABRsqWy/l+IHZujPY+d/qFlZwpurGvXhCtFcWoOSy37MHoR6O9iqWnWNrZUY7tO2pQjFL2Zz8ctkSPZY6RbVNorqdxOEfQ26nSU2knPOOG9wys5+BJR1gOtZpez9pK4ua8KtT1vRUaUoyqOST3MqLbUd7Gc+0zcne6XYdptzdaPrHW2zenSvK7TqT3oW1PPrSqNLd9XnhN8yDTpS6TLrV72vfXcm6lebkot59Gm8pLjwWO5HZesL1hb7aO+leXkn6PLVvbJ/qacM+pLd5Kpgxf8AN+Jbhh0/7Qyy2JFQCxAAAAAAAAAAAAAAAAAAAAAAAAAAAAAAAAAAAAAAAAAAAAAAAAAAAAAAAAAAAAAAAAAAAAAAAAAAAAAAUwJ8eD4e2Pqy/iXEqAO37BdL2qaXx069q27z+1Ny/Fm1/RX2rOrWMYw1Ch+keSlNcGl3vKeTSFoqpNcm0RuMvl2WxNP0Z9pLs9fQgrm4VlWlj9XPik33No2P2R6RLO/hv2dzSrx4cVPL4+zn8jziujHOXCLf2v2kfe0Pbq+tpKVvf3NHGMRpzlGLx3NJ8iq8U9LJm9H/AKT4+7iXRn/T4EIvR/2jm01goQjKncUorD9N68mvjnibI7Bdr7bxilqtpPe/adCPBe5YwV3jqfXElWSprP0c9f7Z3UFFxuPo+9j+3xBrPiZn0jpX02vh0dQtaqly3atN5+GcldliW3cQcELnKTjiafemsHJGT8PmcdXg4/pEfFFyqIC4AAAAAAAAAAAAAAAAFrmi36RHxQHICxy9mSx1scWt1Lm21hAcxTJ1rWekOxof217b0fv1IR/4mYg6ROvDs9p+VO7hcNLj6Bqfw4cH8Duq5tsG5Fqq+9e9YRHntz2vGlxUoadbVpVFn1qscQz3YWORrbt52nu0t3vU6caFCi84cEo1MPxaWck5x2o3OJjNY2ko28JTr1aVOEVluU1F+Tf4Gv3SB1/9mrBTSv4V68cpUYNviva+HkQybT9LOp3k5Tr6jdPebbh6SW5x7sZ5HUZ04t7zipS+2+MvNls4vqFzSHdKPa53FVVKGnWDoPju3Le97sLuRqP0k9aLXtWyr7UJ1KfHEIScML4NGLN58svHh3Fu6WzGT0hbaZ45zKT8Ztz/ABbD/rHBeRUEkTAAAAAAAAAAAFGioA+ls/tJXtKnpbarKjV5b8Xh/LmimvbSXF1U9Lc1Z1qnjKTlH+Fto+dgJAUwVAAAAAAAAAAAAAAAAAAAAAAAAAAAAAAAAAAAAAAAAAAAAAAAAAAAAAAAAAAAAAAAAAAAAAAAAAAAAAAAAAAAAAAAAAApul0ZteHlkoALKtGMvrKX+y938D6Wh7QV7bDtq1Wk4vK/WN4fmfgGAMu6B1utqLbCo6zVjBY9TLefZzMw7Kdp9r9tu+m/71u4zvftY/mag7oTfiyNxl9JbqSDZrtjKsnu3OjqCS+upy4v3b2F8DKmzXavaPU3fpNN0M/Ww293zZEW5Pxb+Ja4LvjF+8h+eLvXU2th2lGyNTG9qLpybwk4y/FP8ju2mdc/Zqqk4alB55ZyufvZAl9Hh/dU/I5Y1WuTcfuto5+Ud669C2m9YHR6r3YX1FvGeM0vxZ2Gh0jWEsbt3bvPL9ZH/mPOfDU6q5XFePunJP8AE5Vrtz3Xt2vdUl/Mj+X9d/R6Oo7S0HwVxbtvklVg2/gp8fgc/wClY/3tH+Nf8x5wVtLd/wDmF7/vZ8PmX/8Aau9/8zv/APfT/wCYfl/f+O9b0d/pWP8Ae0f41/zHHV16lH61ehH31Ix/GR5yP+1d7/5nf/76p/zFstqLx89Svn7603/7jn5f3/h1vRdd7cWdPG/dW6zy/Ww/KTOv3fTlpMM717RWHh+uv5nnultBdPnf3j99Wf8AM4nq1Z87m4fvnL+Z38v651p6dZ64GztDPpNRprHPDb/BnStS7RfZGk2nqeZL9mMZP8XghFncSf1pyl95tnC6MHzp02/Frid/KOddTB7R9qtoVPP0fer+Hdn5mKNou2KlCUlb6R6Vfsyc5L5bxGoqa7oRXuLlJ9za9zJTjxc663O2r7VHXLlSVGl9F3s4x+yYa2k65m1N1lT1iooP9hNr8zCzb8WU3SfTPjm6+9tHt3e3n+d3VWv/ALbX5nXaVtGP1VL/AGpOX4s5cAkiq6j9nki3dKgAkAAAAAAAAAAAAAAAAAAAAAAAAAAAAAAAAAAAAAAAAAAAAAAAAAAAAAAAAAAAAAAAAAAAAAAAAAAAAAAAAAAAAAAAAAAAAAAAAAAAAAAAAAAAAAAAAAAAAAAAAAAAAAAAAAAAAAAAAAAAAAAAAAAAAAAAAAAAAAAAAAAAAAAAAAAAAAAAAAAAAAAAAAAAAAAAAAAAAAAAAAAAAAAAAAAAAAAAAAAAAAAAAAAAAAAAAAAAAAAAAAAAAAAAAAAAAAAAAAAAAAAAAAAAAAAAAAAAAAAAAAAAAAAAAAAAAAAAAAAAAAAAAAAAAAAAAAAAAAAAAAAAAAAAAAAAAAAAAAAAAAAAAAAAAAAAAAAAAAAAAAAAAAAAAAAAAAAAAAAAAAAAAAAAAAAAAAAAAAAAAAAAAAAAAAAAAAAAAAAAAAAAAAAAAAAAAAAAAAAAAAAAAAAAAAAAAAAAAAAAAAAAAAAAAAAAAAAAAAAAAAAAAAAAAAAAAAAAAAAAAAAAAAAAAAAAAAAAAAAAAAAAAAAAAAAAAAAAAAAAAAAAAAAAAAAAAAAAAAAAAAAAAAAAAAAAAAAAAAAAAAAAAAAAAAAAAAAAAAAAAAAAAAAAAAAAAAAAAAAAAAAAAAAAAAAAAAAAAAAAAAAAAAAAAAAAAAAAAAAAAAAAAAAAAAAAAAAAAAAAAAAAAAAAAAAAAAAAAAAAAAAAAAAAAAAAAAAAAAAAAAAAAAAAAAAAAAAAAAAAAAAAAAAAAAAAAAAAAAAAAAAAAAAAAAAAAAAAAAAAAAAAAAAAAAAAAAAAAAAAAAAAAAAAAAAAAAAAAAAAAAAAAAAAAAAAAAAAAAAAAAAAAAAAAAAAAAAAAAAAAAAAAAAAAAAAAAAAAAAAAAAAAAAAAAAAAAAAAAAAAAAAAAAAAAAAAAAAAAAAAAAAAAAAAAAAAAAAAAAAAAAAAAAAAAAAAAAAAAAAAAAAAAAAAAAAAAAAAAAAAAAAAAAAAAAAAAAAAAAAAAAAAAAAAAAAAAAAAAAAAAAAAAAAAAAAAAAAAAAAAAAAAAAAAAAAAAAAAAAAAAAAAAAAAAAAAAAAAAAAAAAAAAAAAAAAAAAAAAAAAAAAAAAAAAAAAAAAAAAAAAAAAAAAAAAAAAAAAAAAAAAAAAAAAAAAAAAAAAAAAAAAAAAAAAAAAAAAAAAAAAAAAAAAAAAAAAAAAAAAAAAAAAAAAAAAAAAAAAAAAAAAAAAAAAAAAAAAAAAAAAAAAAAAAAAAAAAAAAAAAAAAAAAAAAAAAAAAAAAAAAAAAAAAAAAAAAAAAAAAAAAAAAAAAAAAAAAAAAAAAAAAAAAAAAAAAAAAAAAAAAAAAAAAAAAAAAAAAAAAAAAAAAAAAAAAAAAAAAAAAAAAAAAAAAAAAAAAAAAAAAAAAAAAAAAAAAAAAAAAAAAAAAAAAAAAAAAAAAAAAAAAAAAAAAAAAAAAAAAAAAAAAAAAAAAAAAAAAAAAAAAAAAAAAAAAAAAAAAAAAAAAAAAAAAAAAAAAAAAAAAAAAAAAAAAAAAAAAAAAAAAAAAAAAAAAAAAAAAAAAAAAAAAAAAAAAAAAAAAAAAAAAAAAAAAAAAAAAAAAAAAAAAAAAAAAAAAAAAAAAAAAAAAAAAAAAAAAAAAAAAAAAAAAAAAAAAAAAAAAAAAAAAAAAAAAAAAAAAAAAAAAAAAAAAAAAAAAAAAAAAAAAAAAAAAAAAAAAAAAAAAAAAAAAAAAAAAAAAAAAAAAAAAAAAAAAAAAAAAAAAAAAAAAAAAAAAAAAAAAAAAAAAAAAAAAAAAAAAAAAAAAAAAAAAAAAAAAAAAAAAAAAAAAAAAAAAAAAAAAAAAAAAAAAAAAAAAAAAAAAAAAAAAAAAAAAAAAAAAAAAAAAAAAAAAAAAAAAAAAAAAAAAAAAAAAAAAAAAAAAAAAAAAAAAAAAAAAAAAAAAAAAAAAAAAAAAAAAAAAAAAAAAAAAAAAAAAAAAAAAAAAAAAAAAAAAAAAAAAAAAAAAAAAAAAAAAAAAAAAAAAAAAAAAAAAAAAAAAAAAAAAAAAAAAAAAAAAAAAAAAAAAAAAAAAAAAAAAAAAAAAAAAAAAAAAAAAAAAAAAAAAAAAAAAAAAAAAAAAAAAAAAAAAAAAAAAAAAAAAAAAAAAAAAAAAAAAAAAAAAAAAAAAAAAAAAAAAAAAAAAAAAAAAAAAAAAAAAAAAAAAAAAAAAAAAAAAAAAAAAAAAAAAAAAAAAAAAAAAAAAAAAAAAAAAAAAAAAAAAAAAAAAAAAAAAAAAAAAAAAAAAAAAAAAAAAAAAAAAAAAAAAAAAAAAAAAAAAAAAAAAAAAAAAAAAAAAAAAAAAAAAAAAAAAAAAAAAAAAAAAAAAAAAAAAAAAAAAAAAAAAAAAAAAAAAAAAAAAAAAAAAAAAAAAAAAAAAAAAAAAAAAAAAAAAAAAAAAAAAAAAAAAAAAAAAAAAAAAAAAAAAAAAAAAAAAAAAAAAAAAAAAAAAAAAAAAAAAAAAAAAAAAAAAAAAAAAAAAAAAAAAAAAAAAAAAAAAAAAAAAAAAAAAAAAAAAAAAAAAAAAAAAAAAAAAAAAAAAAAAAAAAAAAAAAAAAAAAAAAAAAAAAAAAAAAAAAAAAAAAAAAAAAAAAAAAAAAAAAAAAAP/9k=;" parent="BapCHJRB3HRV54kZIlsD-42" vertex="1">
          <mxGeometry width="97.1870170015456" height="97.1870170015456" as="geometry" />
        </mxCell>
        <mxCell id="JVz_1oxV5FioTtpvH3Ss-18" value="&lt;font style=&quot;color: rgb(255, 0, 0);&quot;&gt;VPC: 172.31.0.0/16&lt;/font&gt;" style="text;html=1;align=center;verticalAlign=middle;resizable=0;points=[];autosize=1;strokeColor=none;fillColor=none;fontSize=15;" parent="BapCHJRB3HRV54kZIlsD-42" vertex="1">
          <mxGeometry x="845.4354609929078" y="1039.4590417310662" width="149" height="30" as="geometry" />
        </mxCell>
        <mxCell id="BapCHJRB3HRV54kZIlsD-45" value="" style="group" parent="BapCHJRB3HRV54kZIlsD-42" vertex="1" connectable="0">
          <mxGeometry x="66.9049645390071" y="166.78516228748066" width="894.0936170212766" height="867.6197836166924" as="geometry" />
        </mxCell>
        <mxCell id="JVz_1oxV5FioTtpvH3Ss-21" value="" style="rounded=0;whiteSpace=wrap;html=1;fillColor=light-dark(#FFCC99,#693B00);strokeColor=#d6b656;" parent="BapCHJRB3HRV54kZIlsD-45" vertex="1">
          <mxGeometry width="894.0936170212766" height="867.6197836166924" as="geometry" />
        </mxCell>
        <mxCell id="JVz_1oxV5FioTtpvH3Ss-25" value="" style="group" parent="BapCHJRB3HRV54kZIlsD-45" vertex="1" connectable="0">
          <mxGeometry x="166.81921985815603" y="238.21806800618236" width="269.1404255319149" height="532.3647604327666" as="geometry" />
        </mxCell>
        <mxCell id="JVz_1oxV5FioTtpvH3Ss-1" value="&lt;div&gt;&lt;b&gt;&lt;font style=&quot;font-size: 14px;&quot;&gt;Webserver/Datenbank&lt;/font&gt;&lt;/b&gt;&lt;/div&gt;&lt;div&gt;&lt;br&gt;&lt;/div&gt;Name: Shopwebsite&lt;div&gt;Domain: neviomarzo.ch&lt;/div&gt;&lt;div&gt;Local IP:&amp;nbsp;&lt;span style=&quot;background-color: transparent;&quot;&gt;172.31.24.42&lt;/span&gt;&lt;/div&gt;&lt;div&gt;Elastic IP:&amp;nbsp;&lt;span style=&quot;background-color: transparent; color: light-dark(rgb(0, 0, 0), rgb(255, 255, 255));&quot;&gt;3.218.233.70&lt;/span&gt;&lt;/div&gt;&lt;div&gt;&lt;span style=&quot;background-color: transparent; color: light-dark(rgb(0, 0, 0), rgb(255, 255, 255));&quot;&gt;User: ubuntu, login per ssh key&lt;/span&gt;&lt;/div&gt;&lt;div&gt;&lt;span style=&quot;background-color: transparent; color: light-dark(rgb(0, 0, 0), rgb(255, 255, 255));&quot;&gt;Gateway:&amp;nbsp;&lt;/span&gt;&lt;span style=&quot;background-color: transparent;&quot;&gt;172.31.16.1&lt;/span&gt;&lt;/div&gt;&lt;div&gt;&lt;span style=&quot;background-color: transparent; color: light-dark(rgb(0, 0, 0), rgb(255, 255, 255));&quot;&gt;SSH: yes&lt;/span&gt;&lt;/div&gt;&lt;div data-id=&quot;copy-to-clipboard&quot;&gt;&lt;span class=&quot;awsui_root_xjuzf_18lrx_1063&quot;&gt;&lt;span id=&quot;318-1747990356234-9210&quot; class=&quot;awsui_trigger_xjuzf_18lrx_1103&quot;&gt;&lt;div class=&quot;awsui_root_18wu0_1gw4i_920 awsui_box_18wu0_1gw4i_172 awsui_m-right-xs_18wu0_1gw4i_734 awsui_color-default_18wu0_1gw4i_172 awsui_font-size-default_18wu0_1gw4i_188 awsui_font-weight-default_18wu0_1gw4i_228&quot;&gt;&lt;/div&gt;&lt;/span&gt;&lt;div data-awsui-referrer-id=&quot;318-1747990356234-9210&quot; class=&quot;awsui-polaris-compact-mode awsui-compact-mode awsui-visual-refresh awsui_popover-inline-content_xjuzf_18lrx_1158&quot; aria-atomic=&quot;true&quot; aria-live=&quot;polite&quot;&gt;&lt;/div&gt;&lt;/span&gt;&lt;/div&gt;&lt;div&gt;&lt;br&gt;&lt;/div&gt;" style="rounded=0;whiteSpace=wrap;html=1;align=left;" parent="JVz_1oxV5FioTtpvH3Ss-25" vertex="1">
          <mxGeometry y="124" width="216" height="175.54" as="geometry" />
        </mxCell>
        <mxCell id="JVz_1oxV5FioTtpvH3Ss-2" value="" style="fillColorStyles=neutralFill;neutralFill=#9DA6A8;shape=mxgraph.networks2.icon;aspect=fixed;fillColor=#EDEDED;strokeColor=#000000;gradientColor=#5B6163;network2IconShadow=1;network2bgFillColor=none;network2Icon=mxgraph.networks2.server;network2IconW=1.0001;network2IconH=0.5812;" parent="JVz_1oxV5FioTtpvH3Ss-25" vertex="1">
          <mxGeometry x="148.58602836879433" y="168.46397217928904" width="60.7479598145286" height="35.30318392581144" as="geometry" />
        </mxCell>
        <mxCell id="JVz_1oxV5FioTtpvH3Ss-24" value="&lt;font style=&quot;color: rgb(255, 0, 0);&quot;&gt;Subnet: 172.31.16.0/20&lt;/font&gt;" style="text;html=1;align=center;verticalAlign=middle;resizable=0;points=[];autosize=1;strokeColor=none;fillColor=none;fontSize=15;" parent="BapCHJRB3HRV54kZIlsD-45" vertex="1">
          <mxGeometry x="-0.0004255319149706338" y="826.0200738582064" width="174" height="30" as="geometry" />
        </mxCell>
        <mxCell id="BapCHJRB3HRV54kZIlsD-11" value="" style="group" parent="BapCHJRB3HRV54kZIlsD-45" vertex="1" connectable="0">
          <mxGeometry x="84.1" y="598.88" width="558.62" height="220.12" as="geometry" />
        </mxCell>
        <mxCell id="BapCHJRB3HRV54kZIlsD-6" value="" style="rounded=0;whiteSpace=wrap;html=1;fillColor=#1ba1e2;fontColor=#ffffff;strokeColor=#006EAF;" parent="BapCHJRB3HRV54kZIlsD-11" vertex="1">
          <mxGeometry width="555.1140167364016" height="220.11999999999998" as="geometry" />
        </mxCell>
        <mxCell id="BapCHJRB3HRV54kZIlsD-7" value="" style="group" parent="BapCHJRB3HRV54kZIlsD-11" vertex="1" connectable="0">
          <mxGeometry x="323.71912133891215" y="47.79748571428571" width="234.90087866108783" height="164.77554285714282" as="geometry" />
        </mxCell>
        <mxCell id="JVz_1oxV5FioTtpvH3Ss-32" value="" style="rounded=0;whiteSpace=wrap;html=1;" parent="BapCHJRB3HRV54kZIlsD-7" vertex="1">
          <mxGeometry width="222.04560669456066" height="164.77554285714282" as="geometry" />
        </mxCell>
        <mxCell id="JVz_1oxV5FioTtpvH3Ss-4" value="" style="strokeWidth=2;html=1;shape=mxgraph.flowchart.database;whiteSpace=wrap;" parent="BapCHJRB3HRV54kZIlsD-7" vertex="1">
          <mxGeometry x="7.011966527196652" y="6.918057142857142" width="70.11966527196653" height="75.46971428571428" as="geometry" />
        </mxCell>
        <mxCell id="JVz_1oxV5FioTtpvH3Ss-9" value="DB-Name: wordpress-db&lt;div&gt;DB-Server: localhost:3306&lt;/div&gt;&lt;div&gt;DB-User: M158&lt;/div&gt;&lt;div&gt;Pass: Nevio1234&lt;/div&gt;" style="text;html=1;align=left;verticalAlign=middle;resizable=0;points=[];autosize=1;strokeColor=none;fillColor=none;" parent="BapCHJRB3HRV54kZIlsD-7" vertex="1">
          <mxGeometry x="50.25242677824268" y="76.72754285714284" width="158" height="70" as="geometry" />
        </mxCell>
        <mxCell id="BapCHJRB3HRV54kZIlsD-2" value="&lt;font style=&quot;font-size: 17px;&quot;&gt;&lt;b&gt;Database&lt;/b&gt;&lt;/font&gt;" style="text;html=1;align=center;verticalAlign=middle;whiteSpace=wrap;rounded=0;" parent="BapCHJRB3HRV54kZIlsD-7" vertex="1">
          <mxGeometry x="118.03476987447699" y="15.093942857142855" width="70.11966527196653" height="37.73485714285714" as="geometry" />
        </mxCell>
        <mxCell id="BapCHJRB3HRV54kZIlsD-8" value="" style="group" parent="BapCHJRB3HRV54kZIlsD-11" vertex="1" connectable="0">
          <mxGeometry x="9.34928870292887" y="72.95405714285714" width="222.04560669456066" height="133.32982857142858" as="geometry" />
        </mxCell>
        <mxCell id="JVz_1oxV5FioTtpvH3Ss-28" value="" style="rounded=0;whiteSpace=wrap;html=1;" parent="BapCHJRB3HRV54kZIlsD-8" vertex="1">
          <mxGeometry width="222.04560669456066" height="133.32982857142858" as="geometry" />
        </mxCell>
        <mxCell id="JVz_1oxV5FioTtpvH3Ss-3" value="&lt;font&gt;Document Root&lt;/font&gt;&lt;div&gt;&lt;font&gt;/var/www/html&lt;/font&gt;&lt;/div&gt;" style="text;html=1;align=center;verticalAlign=middle;resizable=0;points=[];autosize=1;strokeColor=none;fillColor=none;fontSize=14;fontStyle=0" parent="BapCHJRB3HRV54kZIlsD-8" vertex="1">
          <mxGeometry x="87.64958158995815" y="75.46971428571428" width="115" height="46" as="geometry" />
        </mxCell>
        <mxCell id="JVz_1oxV5FioTtpvH3Ss-29" value="" style="image;aspect=fixed;perimeter=ellipsePerimeter;html=1;align=center;shadow=0;dashed=0;spacingTop=3;image=img/lib/active_directory/web_server.svg;" parent="BapCHJRB3HRV54kZIlsD-8" vertex="1">
          <mxGeometry x="15.19" y="8.8" width="41.76" height="52.2" as="geometry" />
        </mxCell>
        <mxCell id="JVz_1oxV5FioTtpvH3Ss-31" value="Apache Web Server" style="text;html=1;align=center;verticalAlign=middle;whiteSpace=wrap;rounded=0;fontSize=17;fontStyle=1" parent="BapCHJRB3HRV54kZIlsD-8" vertex="1">
          <mxGeometry x="73.62564853556485" y="8.804799999999998" width="148.4199581589958" height="41.50834285714285" as="geometry" />
        </mxCell>
        <mxCell id="BapCHJRB3HRV54kZIlsD-9" value="" style="shape=image;verticalLabelPosition=bottom;labelBackgroundColor=default;verticalAlign=top;aspect=fixed;imageAspect=0;image=data:image/png,iVBORw0KGgoAAAANSUhEUgAAASwAAACoCAMAAABt9SM9AAAAb1BMVEX///8AkuYAjeUAieQAi+UAjuUAkOb6/f/v9v0Ah+Sgy/Ial+fI4Pfq9PwAk+b2+/7c7PqAvO+PwvCbyPJus+2t0fS31vUAg+PR5vnE3vddrOu62faQw/Dh7vtMpeqw0/Rkr+w4nuh2t+5Coukwm+hs64P0AAAJyklEQVR4nO2bbYOyKhCGE5DUzHLNVq00rf//G4/yoqiQtdn27GmuT2uLBDfDMAy0WAAAAAAAAAAAAAAAAAAAAAAAAAAAAAAAAAAAAAAAAAAAAAAAAAAAAPxBNi3vbsm/T/GNBd/Fu9vyz+MhS4C8d7flnwfEegAQ6wFArAcAsR4AxHoAEOsBQKwH8Dux/He3BfiD9HaAS/UB9oZD4m4HeFik3YOn7g33727lP0LUeaZ4sW8f7C9w8GOeEiv51aa+n2fE8r9z53db+2aeEYtalHxUVPGEWOxV95MSg0+Ixf/vftBS+XOxYvF/d/vbbX4bfbFI+zAtVknl/3+7zW8jtQOBnSyS7mG/8LsHnRd3sCIscJtuylr4sf1QWq7CWZqwzoLdy7diTssPHxpCuxULRY98e+JSC2UzdGND6opWM1R0i24H6EYLT90BKnvDSN01FupGMea1ZK3LsqyHWlw1L7ozWARbYfCLdxGHbs0L710Nx96+VMTCjwTyu+ZFsn6+H6xNr46KD6okPxer06p+1Y+j45e3v2eYP1GsXLEsC9XYNkIE55Mx6ieKValidVBiTTT/E8XqPhkykSv8RLFObVA6BN8W4hPFWlwNWtGJGOpviaXsAIehg3FvqBGraAv3cU+3v/5vibUNVgKrjkMt+RDUe8P2wTos/O7BV//Ttk5vWuQ48fV/S6x5cLyVTqvpjcyfEWs5C852/1Vi7WpItFqt0yIuUqGPXqxtut/7tybwOvWOX1GhJM8MYiVRel/dG79txNo/7A+9IsvMxbNACLL1UZarydYkFcWkiVqxXSVasTbehZWo690NO8pxjisswl5USb20Ym0yjLA6YkUu6z736y5c4rLsxza0RBF8bseitLUdnA1KruPtzrbEna4Ul8lYrBAj2tURHMZahaoZU5w5RrEK0lSF2zoiotZtKQcGG7cZ3NpPl7jThboigbI1BkZPq1RT73QyjVWEbt8EqRsOxPLRYD6TyyAjkdiDUaZ4rxfLyfkKjcQisw2GdZftlt9vitresIHfp+6/r4Be8qyK/OVYqkU5dmx8ArdiRe64PrvnX+JxCQtHOrFiIjouLOugqbtN6XA5Ru6EpK8V66pRiXOVTaG1S+g1S4p1lOZuI6UIUdx4jJU6kLQx1xmJtS5lB/GOfVBIrWhdeauKm6hiSWz57a7zUrFQbNIq512r/VDoFV4YkE4vIdZeKFGXKNLUOxNhiaidLYnoMUK7OPWL0OIlSDIUK5K+0aZ+/02cHz3v6yJdEx5NNIqvYVx4VUCQKzqTvEgsYtLK419ILtLyk25WcrHWXCu0ar1dxD+hpXheCr27EdlTmWlVxTpdZdW46r9JIuEfnFCMTDAQC2dy2m/30jucXiOWbTp82PC2YfUcLZJziovFc2KkUkqsA/6ZEKdiXUYXxSEuc4xYblsR6yjNCgVyZPibtrpanHjd/DSqFQtrll/l7GpWXFMszk80cD9fU8h517yVsAfUV3sTsAKUt5lNJXsQ6SYH9p2tWNuVNCu3rWvN38x7Ly5XTC12GiXFMiTxXyKWOcfAGjM6UwxRJ9a5aTq9DErwuUmYyF9M8ED/BVKsUDpytOoWhlD7psMbFXViEZ1d1QSvEAubDu95ImjcT6sVa8lUGWe/jnY7CKzJpu0fE8s+SrOirrqF52Y9shqePVm1YhnHOtdvUZ7CbFgs7axZKfkViUastGkuPY9KCBEX0shMoQnvuAwm6FWNzras7qHRLsRYNadRXCxiGuvwBdsdo2EtWE5Cc1bN/X4jFrMgpJkG7Eiy6QazTtt0hNtPbPdtmA9JHo4o2bf7UizDDK+dqzFr/mM0diFhmuhOX69SLL7v0Rw5MhUaFaObSZi+WP2mcGdn2SPYx43BM7FoZaibm+a8mE9XmQFpJ+lZ7g2ZW8CaEsygmg6xLhNT4qYVi7sXoq6qu5sup8n28r2h+eLB7GIhc1aUBSpaw9v1xNKFtCkSHQrvEovk/A81opsQKxJi3biHnc3t4Y0zXlpWrvkPNyhHNEd3AyeWlsW8GjEdc3OxaD1fI24Gbuf/DKeaAtefFiue2Wm5t07reUSj+Qdf1GWHdFKEbCFNhZc1doiJRc9NcF8J22or4+cwlGhx2zjrhljrecNSdPOWVWmQgm9Rr7Kzut0S3/CcbgQAnVhi7c+4524zP2wm091pq4MZ85RYC+0Rw0+h5tRMA/M3dDf6nHkTJlFiML4DzzQ1fzL7MIUnXCwxHPJSj5jVLA8q9kx6JsWK5pyHEwfPPI4ZdZTna3mKjQeVI9NiYTtf1CvthkjQE2vJN8ntCF7YVL5xy25SrDnnIdYfLXTwYsM1QN0mi632oKJM2alwaQ2Lbk+shcMNQW6dD9qxWib9tPLNXyXNt+OZPEuVi1WpfrbkuVPRRpEHwb2o88xfu6oNxr0v86ibb0ZiycsXSMx8Piqop9bBJd/S2KbFmi1bioyhb4cwoqBz8r6IH+VlcJGCwN1MlEk8ua6deEaBdD8S2mR1H+xyLJZMjRKe6EjH6TSWwxYnEneI1bvc+IxW91yglXldnB/YFd79RXgBtzUlkQixUejXRdb7TCTxurEQ6VaKd2ldwvFD3KbKh2LJJDXmu/cdlx0FHnOuTsyPelBxt1j+LF7rzsvGIlas40ZMKGlPB0mX42rvLdmkObyVJdSF9ozaSpoiooS71IjVBqfcC0rDQBitrrY8esTqgcXELynn8FrkfJdW9TTTzfpeFjnRDR5dqcdqmaYSVsdYLBmciiOaqybNguSmQhVrc9Cv7DMkl/H9V/41p4Juf2XYotHo9TLuNV+jSngLNGKJpVSm0cY64zbwU8TaHONQvxmJn/XxrvHoS0Ni9UM7RIcJl02Oe3JRPFpnk5VyiNacrPGe8Xvwg+CAbxzkMX3RP+5GtNs9Mpvmqu7XVWowgOypHKBNH/wRmGe3PaVEGyX6JZZHoBS5O92MOFwwsptbAjbCpTwCWTa/sCiHRQO7bmP3GFnCE1JEgp6HKlFdG7PhJD0VJud1fcJt4R/8jiStVrVnxnhVmeLY7deluZuDaRabfnnhFGF2uWRhoWi5zq7V6NLA5rw697JsSXQug6A8R8NRDks5MAfP6Og3wU/VsnVJ4Ltw1lM/wtis17rbEm9ns/rRTKTueBw/Ad1yPCUVzma42vgnifFjU9HG54lLyP9nnJ1791ykCIWfalWCdUjGAaFOKZz91K3/rzicyU3B6tjE3h0+0qtrSaLMxs3tY1WzJvirw56yKj7YURlwkvhY5WWA+Nbfuua7rzgFnQAAAAAAAAAAAAAAAAAAAAAAAAAAAAAAAAAAAAAAAAAAAAAAAAAAAIC/wH/cuowGQA/7DgAAAABJRU5ErkJggg==;" parent="BapCHJRB3HRV54kZIlsD-11" vertex="1">
          <mxGeometry width="67.85" height="38" as="geometry" />
        </mxCell>
        <mxCell id="JVz_1oxV5FioTtpvH3Ss-5" value="" style="rounded=0;orthogonalLoop=1;jettySize=auto;html=1;strokeWidth=4;exitX=0.452;exitY=0.843;exitDx=0;exitDy=0;exitPerimeter=0;entryX=0.276;entryY=0.2;entryDx=0;entryDy=0;entryPerimeter=0;" parent="BapCHJRB3HRV54kZIlsD-45" source="JVz_1oxV5FioTtpvH3Ss-1" target="BapCHJRB3HRV54kZIlsD-6" edge="1">
          <mxGeometry relative="1" as="geometry">
            <mxPoint x="288.9078014184397" y="360.5255023183925" as="sourcePoint" />
            <mxPoint x="234.1673758865248" y="557.6352395672334" as="targetPoint" />
          </mxGeometry>
        </mxCell>
        <mxCell id="BapCHJRB3HRV54kZIlsD-4" value="Port 443" style="edgeLabel;html=1;align=center;verticalAlign=middle;resizable=0;points=[];" parent="JVz_1oxV5FioTtpvH3Ss-5" vertex="1" connectable="0">
          <mxGeometry x="-0.5018" y="1" relative="1" as="geometry">
            <mxPoint x="-7" y="21" as="offset" />
          </mxGeometry>
        </mxCell>
        <mxCell id="BapCHJRB3HRV54kZIlsD-43" value="" style="rounded=0;orthogonalLoop=1;jettySize=auto;html=1;strokeWidth=4;exitX=0.842;exitY=0.898;exitDx=0;exitDy=0;targetPerimeterSpacing=0;sourcePerimeterSpacing=0;startSize=6;entryX=0.68;entryY=0.114;entryDx=0;entryDy=0;entryPerimeter=0;exitPerimeter=0;" parent="BapCHJRB3HRV54kZIlsD-45" source="JVz_1oxV5FioTtpvH3Ss-1" target="BapCHJRB3HRV54kZIlsD-6" edge="1">
          <mxGeometry relative="1" as="geometry">
            <mxPoint x="-412.0737588652486" y="180.1953632148381" as="sourcePoint" />
            <mxPoint x="-237.22067517730503" y="-77.4877125193202" as="targetPoint" />
          </mxGeometry>
        </mxCell>
        <mxCell id="BapCHJRB3HRV54kZIlsD-44" value="Port 3306" style="edgeLabel;html=1;align=center;verticalAlign=middle;resizable=0;points=[];" parent="BapCHJRB3HRV54kZIlsD-43" vertex="1" connectable="0">
          <mxGeometry x="-0.2648" y="3" relative="1" as="geometry">
            <mxPoint y="1" as="offset" />
          </mxGeometry>
        </mxCell>
        <mxCell id="BapCHJRB3HRV54kZIlsD-46" value="" style="shape=image;verticalLabelPosition=bottom;labelBackgroundColor=default;verticalAlign=top;aspect=fixed;imageAspect=0;image=data:image/jpeg,/9j/4AAQSkZJRgABAQAAAQABAAD/2wCEAAkGBw0NDQ0NDQ4ODQ0NEBAPDQ0NGBYQDQ0NGBIXGBcRExMZHSggGholHRYXIzEtJy0tLi4uFx8zODMtNygtLisBCgoKDg0OGw8PFy4dHSE3LSsrLSstKzArLS0uLiswKysrLSsvKystLSstKysrLS0tLSstLS0tKystLS0tLS0tLf/AABEIAO0A1QMBEQACEQEDEQH/xAAbAAEAAgMBAQAAAAAAAAAAAAABAAYDBQcCBP/EAEYQAAEDAgEEDwYFAgMJAAAAAAEAAgMEERIFBiExBxMWMzRBUVNyc5GSstHSFBdUcbHCFSJhgcGhszKToiMkJTVSZHTh4//EABoBAQEAAwEBAAAAAAAAAAAAAAABBAUGAwL/xAA0EQABAwEEBgoDAQEBAQEAAAAAAQIDBAURUnEVITORocESEzEyNEFRgbHhFGHRUyLwYyP/2gAMAwEAAhEDEQA/APtBXCHZioCIBUAgqAUAqAQoBQCoCKAUAqAVAIKAVAKgFQCgFQEQDdQCoBQCoQiAiA1K2JSAqAUAqAVAIKgFAKgEFQCgFQEUAoBUAqAQUAqAVAKAVARQCgG6gFQCgFQEQhqFsSkQCgFQCoBUAgoBUAqAl1AekBFAKgFAKgFQCCgFQCoCIBUAqAUAhQCoBQEUBp1sgKAVAKAVAKgFQCgFQEUAqAUA3UBMQ5UFw4goBxBQDiCC4bqAbhQDcILhuoBuFAS6C49AqAVAKAigNQtkCKAUAqAUAqAVARAKgPSgIoBugOl5IyTDSQtu1uMNvLK61ybadJ1BdlS0kdPGmrX5qcvUVMk7+3V5IfV7ZTc7B3m+a9+uhxJvQ8uqlwruUntlNzsHeb5p10OJN6DqpcK7lJ7ZTc7B3m+addDiTeg6qXCu5Se2U3Ow95vmnXQ4k3oOqlwruUntlNzsPeb5p10OJN6DqpcK7lJ7XTc7D3m+addDiTeg6qXCu5Se103Ow95vmnXQ4k3oOqlwruUntdNzsPeb5p10OJN6DqpcK7lJ7XTc7D3m+addDiTeg6qXCu5Se103Ow95qnXQ4k3oOqlwruU8VlBBVRkENcHD8kjbXaeUELznpYamO5yIt/YqclPqKeWB96L7HO5GFjnMOtpLT8wbLhZGKxytXy1HUtcjkRU8wXwfQqA0y2QFQCgG6gFQCgG6gFQEQCoBUBDqKBDq2VuC1HUyeArt6nYvyX4OSp9q3NPk5WFwx1p6UuApcCKAVAKXAVAKAVAKgOiZucDp+j/JXcWb4VmRy9d4hxRK/f5utk8RXG1W3fmvydJDs25J8GFY56EQGnWyAgqAUAqAQVAKgFAQFQHpARQCoCE6CoVDq+VuC1HUyeArt6nYvyX4ORp9q3NPk5WFw51ogqAUAqAigFAKgFQCCgFQHRc3OBU/R/krt7N8KzI5eu8Q4odfv83WyeIrjqrbvzX5Ojh2bck+DCsc9SKA062YFQCFAKAVAIKgFQEQGWGGSQkRse8jSQwFxA/Wy+msc/uoq5Hy57W95bsxlgkjsJGPjvqDwW3+V1HxuZ3kVMw17Xd1b8iRRuecLGue46mtBc7sCjWq5bmpepXORqXqtx7lppWC8kcjATYF7S0E8mkKviexL3NVM0PlsjHd1UX3PQqZnfl2yV2LRhxOOK/Fa+lOtkdq6Srf+1HQjTXcibhkpJmAudFK1o1uc1waPmSFHQyNS9zVRMlCSsctyORfdDEvI+z6DRTgXMMwAFySx1gOW9l6rTyol/QXcp59dGurpJvQwrxPQzx0czgHNhlc06i1riCP0Nl6JBK5L0Yqpkp5rLGi3K5N6GIi2g6CNYOsFeSpdqU9CKAVAKgEIDo2bnAqfo/yV29m+FZkcvXeIcUKv3+brZPEVxtVt35r8nRw7NuSfBhXgepFAadbICgFQDdAIUAqAigPSgLXse7/AD9W3xLc2L335Iam1u43MybIe+U3Qk+rVba7zPfkSyO6725muzL4fF0ZPAVi2V4lMlMm0fDr7fJYNkDg0PXDwPWytrYtz5Ka6ydq7LmhUMj8Kpuui8YWhptszNPk3NRsn5L8F/zt4BP8meNq6e0/Cv8Ab5Q56z/EN9/hTmx1FcgdQdWr+CzdS/wFdxNsnZL8HIxbVuafJysFcKdadNzc4FTdWF2tB4ZmRy1bt35nOqvfZesf4iuOn2js1+Tpo+4mSGJeR9ioBUAoDo2bfAqfo/cV21neFZkcvXeIcUKv3+frZPEVx1Vtn5r8nSQ7NuSfBgXgegqA062QFQCgFQCgFQEuoD6smUbqmeOBhAdIbXOpoAuT+wBXpBEs0iRt8zzmlSKNXr5HTckZEp6MHamnG4APkcSXP/gfsuqpqSOBP+E1+anM1FVJP311ehnrcmU9QWmaJshaCGl3ECvSWnjlu6bb7j4jnkj1MdcY6XI9LC8SRQsY8Xs4XuLixXzHSwxu6TGoilfVSvb0XOvQz1tFDUNDZmCRrTiAdqDrWv8A1XpLCyVLnpeh8RyvjW9i3HyxZComOa9sDA5pDmkXuHA3BXi2ip2qioxL0PV1ZO5Lletyn21NOyVhjkaHsda7TqNjde8kbZG9F6XoeDHuY7pNW5T4Nz1D8PH/AF81jfgU3+aGR+bUY1Nk+NrmlhF2kFpHK0i1llqiKly9hjIqot6Gu3P0Pw8f9fNYn4FN/mhk/mz41PvghZGxrGANY0Wa0agFlMY1jUa1LkQx3vV69Jy3qpWc5M24tqkqIAWPYDI9tyWvbrcdOo8a0toWZH0Fli1Kmtf36m1oq9/TSOTWi6k/XoUy65o3goBUAoDo+bXAqfo/cV2tneFZkcvXeIcUGv3+frZPEVx9Ttn5r8nRw7NuSfBgWOeooDTrZAVAKAVARAKgLxmE2EwT7aIydt0Y8N7YByreWT0Ord0ru3kaW1Ff1jejf2eWZaoW04cNrEWLiwYcX9Ftm9C/VcapyyXf9X3Ghz9nfHTwmN72Ey2JYS0kYHaNC11rPc2JqtW7X5ZKZ9lta6Rekl+rmhSPxCo5+bvu81oOvlxrvU3nUx4U3IP4hUc/N33eanXy413qOpjwpuQn4hUc/N33eadfLjXepOpjwpuQfxCo5+bvu81OvlxrvUdTHhTcg/iFRz83fd5p18uNd6l6mPCm5B/EKjn5u+7zU6+XGu9R1MeFNyD+IVHPzd93mn5EuNd6k6mPCm5B9vqOfm77vNT8iXGu9S9THhTchDX1HPzd93mp+RNjXeo6mPCm5DqkWmNuLSC0Xv8ALjXbp3dZyTu9qMGCl5IP9K87ov1wPS+X98Tn2cOH2yow2w4hbDq/wjVZcjaF35L7v/akOko7+obea9YRkioDpGbXAqfo/cV2tneFZkcvXeIcUDKG/wA/WyeMrkKrbPzX5Okh2bck+DAsc9BugNOCtkBUAoBBUAqAiAV83A3uZA/4hD0ZPAVn2Z4lvv8ABg2j4dfb5LHsh8Gg677HLY2xsm58lNfZO1dlzQoS543wgqAVAKAgKgPSAigFQEJ0KA6vUcFf1LvAu4k2S5cjkmbVM+ZyoBcMdaegoBQCoDpObPAqfofcV2lneFZkcvXeIcc/yhv8/WyeMrkKnbPzX5Okh2bck+DAvA9BUBp1swIKgFQCgICoD0oC45kZIpqmGZ08TZHNkwtJJFhhBtoK3Fm00UrHK9t+vkai0aiWJ6Ix12otVHkOjgkEsULWPbezgXXFxY6ytrHSQxu6TG3KauSqmkb0XOvQ0uyJwaDrvscsG2Nk3Pkpm2TtXZc0KCueN8KgEFQCoBQEBUAoBUBDqUCHXo2B0Qa4XDmAEcoIXdoiK25Tj1VUdehr9zlD8O3td5rE0dTf5oZH51Rj+CiZegZFVzxxtwsa4BrRxDCCuYro2xzua1LkT+HQUj3Pha5y3qp8IKwzIFAdKzZ4DT9D7iuzs7wzMjl67xDjn2UN/n62TxlcjU7Z+a/J0cOzbknwYF4HqKgNOtkBQH1ZNoZaqVsMLcT3cuhrW8bnHiC+4onSv6DO085ZWxN6b+wtjNj99hiq2g8YEZcB++MLZpZC+b+H2atbXTyZx+j17vj8YP8AK/8Aoroj/wCnD7JpdP8APj9GpzjzaNBHHIZ9t2x+C2DBbQTe+I8ixKuh/Hajulffq7Psy6St/Icrejdd+7+SGngq5owRHLLGCbkRuc0E8pAKwmyPZqa5UyUy3Rsdrc1FzQsGZtdO+via+aZ7S2S7Xvc5p/IeIlZ9nzSOqERzlVNfmvoYNoRRtgVWtROzyT1N3si8Gg677HLNtfZNz5KYVk7V2XNCgrnzfCoBUBFAelARAKAVAQ6iooOszkileQbEQkgjQQcC7d63RLlyORbrlTPmcyGUan4ifvv81xv5M2Nd6nU9RFgTchhfI5xLnOLnHW5xJcfmSvFzlct7lvU9EaiJciXAvkpFAdLzZ4DT9D7iuzs7wzMjl67xDjn2UN/n62TxlclU7Z+a/J0kOzbknwYF4HoKgNOtkBCgLnsaNG3VTraRHGAeQFzr/Qdi21kp/wBOXLmai11/4amZts7c5J6GWKOJkTg9hcTICSDitosQsmtrHwORGoi3mLQ0bJ2q5yql3oaPd5V81T9j/UsLSsuFOJnaKixLw/hrst5xT1zGMlZE0MdjBjuCTYjTcnlWNU1j52o1yIlxkU9GyBVVqrr9TYZo5vQV0Ur5XSNLJMA2sgC2EHTcHlXvQ0Uc7FV6rqXyMeurHwPRGomtPMtOS81aakmbPG6UvaHAB5BbpFuILZwWfFC9HtVbzWzV8krFY5EuPg2ReDQdd9jlj2vsm58lPeydq7LmhQFz5vhQCFAKgIoBQCoBQEOpRQh15sYfCGG9nx4TbXYtsu46PSZcvmhx/S6L708lNFuLpP8Arn7W+lavQ0Hqu/6NhpWb0T/3uU7LNK2nqZoWElsbgGl2l1sIOntWhq4WxTOjb2IbqmkWSJr3dqnyLGPYigOmZscBp+h9xXZ2f4ZmRy9d4hxz3KG/z9bJ4yuRqds/Nfk6SHZtyT4MC8D0FAadbIEQF22Mt8q+hF9XLa2T3n+3M1Fr91nvyMeyTwmn6o+Mr4tbaNyPqydm7MqC1RtRQGyyZluqpGuZBJga84nDC113Wtxj9F7w1MsKXMW688JqWKZb3peWLNXOGsqK2OKaUOjcHktwtF7NJGkBZ9FWTSTIx63pr8kNfW0cMcKuY25dXmp9+yNwaDrvscva19k3Pkp4WTtXZc0KAtAb4igFAelAKgIgFQCoCHUVAdcleW0znN0ObESDyEM0Lt3KqRqqehyLURZLl9eZz8Z1V/PDuM8ly2k6rFwQ6HR1Ph4qaurqXzPfLIcT36XGwFza2ofJYcsjpHK9y3qplxxtY1Gt7EOhwZtUJYwmAXLQT+Z+u3zXUts2mVqL0Pk5x1fUIqp0uCGTczQcwO8/zV0ZS4Pk+dIVGLgh9pMNJBxRwxDRc3sOQX1lZP8A+dPH6NQ8P+55PVynLp5ccj32tjc51uS5JXEyO6b1d6qqnWMb0Wo30PC8z6FAadbICoC67GO+VfQi+rltrK7z/bmai1+6z35GPZK4TT9UfGV8WrtG5H1ZOzdmVFao2pFAb/NzNp1fHJIJhFtb8Fi3HfQDe9xyrOpaJahqu6V12rsMGqrUp3I1W33/ALLPkHNB1HUsqDUNkDA4YQwtvdpGvEeVbGms5YZEf0r7v19muqbRSaNWdG6/9/R52R+DQdd9jl82vsm58lLZO0dlzQ5+CtAb4VARAKgEFQCoBQCFAQ6iopTr5ixwYL2xx4b67Xba67ZW9JnR9UOP6XRkv9FKkMxX/FN7h9S0mhF/04fZt9Lpg4/RWsp0fs88kBdj2sgYrWvoB1futRUQ9VIsd99xs4JetjR91156GVKoaBU1AA1DbH+av5U/+jt6k/HiwJuQfxSr+JqP8x/mn5U/+jt6j8eHAm5DHPVSy222SSS2rbHOfb5XK8pJZH99yrmt59sjYzutRMkMS8z7FQCoDTgrZgVAXbYx32r6EX1ctrZXef7czUWv3We/IxbJfCafqT4yvi1do3I+rJ2bsyoArVm1FQG7yDnJNQMfHHHG8PdjJfe4NgOI/osumrHQNVrURbzDqaJk7kc5VS4s2buds9XVRwPiia14eS5uLFoaTxn9FsaW0HzSoxWohrqqz2QxK9FVTJskcGg677HJa2ybnyUlk7V2XNDny0JviXUB6UBEAqAQVAKAVAQnQVFKh190hZTl40lkWIA6iQ267VXdFl/ohx6N6Ul3qpSxnxU8zD/q81odMy4E4m60THiXgaDKFY6omkmcA10hBIbqGgDR2LVzyrLIsipdebGGNImIxPIwLyPQigFQCCgFQCoDTLZAboC77GG+1fQi+r1tLK7z/bmai1+6z35GPZM4TT9SfGV82rtG5H1ZOzdmU9as2o3UBtsj5v1Nax74NrwsdhdjdhN7A8n6rIgpJJkVWXajGnq44FRH36yy5sZr1dLWRzyiPA0PBwuudLSBosthSUMsUqPdddrNdWV0UsSsbffqPq2SOCwdd9jl92ts258lPOydq7Lmhz5aE3woCKAVAKAVAN1AKAh1FRQh2CSMvpyxut0RaL6rltl2jkV0dyehyCKjZL19ShDM2u5Ie9/6XOaIqP1v+jf6Ug/e401bSvglfDJbHGbOw6RewOg/usCWJ0T1Y7tQzY5Ekaj29imFeZ9ioBUAqAQUAqA062QIoC77F++1fQi+r1tbL7z/AG5motfus9+Rj2TOE0/UnxlfFqbRuR9WTs3ZlPWsNqKgLLmrnNHQRSxvifIZH4wWkAAYQLafks+jrGwNVqoq3mvrKJ1Q5HI664s+Sc84aqojg2l8ZkJAe4gtBwkgfva37rYQ2iyR6M6Kpfka6ezXxRq/pX3H35z5FdXxRxtkERZJjuRiv+Ui2scq9aymWdqNRbrlvPCjqUp3K5Uvv1Fb938nxTO4fUtfoh2Ph9mx0u3Bx+h938nxTO4fUmiHY+H2NLtwcfom4CT4pncPqU0Q7Hw+yaXbg4/Q7gJPimdw+pNEOx8Psul24OP0TcDJ8UzuH1Jod2Ph9jS7cHH6HcDJ8UzuH1KaHdj4fY0u3Bx+ibgpPimdw+pNDux8Psml24OP0O4KT4lncPqTQ7sfD7LpduDj9EOYcnxLO4fUpoZ2Ph9jS7cHH6LhUztp4HyP0thjLjxXsNQ/UrdSPSONXL5IadjFkkRqeala3dxfDydrVq9Mx4F4Gz0S/GhUsrVgqKiWdrS0SEENOkj8oH8LSVMqSyukRLrzbU8SxRoxVvuPkXgewoBUAqAVARAadbICoC8bF++1nQi+r1tLL7zvbmai1+6z35GLZN4TT9SfGV8WptG5H1ZOzdmU+61htRQCoD0x5aQ5pIIIII0EEaiCn7QKl+pTouZOcFRWOkhnwO2pgcJALPdpt+bi7LLe0FVJMqtf5GgtCkjhRHM8/I+nOvOOSgfC1kbJNta4nGSLWI5PmvusrHQKiIl9550VG2oRVVbrj5M3s7payqZA+GNjXB5LmkkizSeNeVLaDppEYrbj1qrPZDEr0cqm1zpyy+hhjkYxshfIGEOuABhcb6PksmsqVgYjkS/XcY1FTJO9Wqt1yXmgoM955Z4YjBEBLIxhILrgOcBf+qwI7Ue56NVqa1RN5nS2WxjFcjl1Iqlpy9XupaWWdrQ90eGzXaAbuA/lbOpmWKJXol9xrKaJJZUYq3XlPOf0/wAPF2uWo0u/Am822iWYlLzVTlkMkoAJZG54B1Eht7Ldvd0WK70NKxvSejfVbikbvJ/h4u1y0emH4E3m60SzEpcskVZqKaGdwDTI0OLRqC3MEiyRtevmaieNI5FYnkc9zhy/UVTnwvLWRMe4YGXAdhdoLidf0XOVlZJMqsXUiL2JzOgpKOOJEemtV9TSrAM0igFAKgFAKgFQEQGnWyAqAvGxdvtZ0Ivq9bSy+8725motfus9+Rj2TuE0/UnxlfFqbRuR9WTs3ZlOWsNqIUAoBUBY8ycrQUc0z6hxa18Ya2wLrnFfiCzqCdkLnK9e0wLQp3zNRGJfce89ssU9ZJTup3Fwja8Ou0tsSRbWP0S0Khkzmqxey8ln08kLXI9Lr7j4s1a+KmrI5piWxta8EgFxuWkDQF40crYpke/s1ntWxOlhVjO3UbrPTL9LWQRRwPc5zZQ9wLXN/LgcNZHKQsuvqopo0axdd/p+lMOz6SWF6uelyXev7QrOTJmx1FPI82ZHLG9x12aHAnQtZE5GyNcvYiovE2UzVdG5qdqovwXTOXOaiqKOaGKRzpH4cILXAGzwdZHIFt6uthkhcxq61/SmopKGaOZHuTUn7T0KGdRWjU3Z0eszsoH08sbZHFzonsAwPH5i0gabLopLRgVioi+Xopz8dnzpIjlTVf6oc7C5xDoC/ZCzoooaSCKSRwfGwNcAxxAPzAW/pq+COFrXLrRPRTRVNBO+VzmpqX9oUepeHSSOGpz3uHyLiQtDIt7lVPNVN2xLmoimNfB9CoBQDdQCoBQCCoBUBpgVswKgLzsW77WdCL6vWzszvO9uZqLX7rPfkYtk7hNP1J8ZXxae0bkfVk7N2ZTlrTakUB6ugFQEUAoBBUAqAUB92Rsnuq6hlO1wYX4vzOFwLNJ1fsvWCFZpEYi3XnjPMkMavVL7jZZfzZkoImSvlZIHyCOzQQQS1xvp6K96qhdA1HK6/XcY9LXNncrUbdcl5olgmcIKgFQEQCoBBUAoBUAgqAVAKAigNOtmBCgLzsW77WdCL6vWyszvO9uZqLX7rPfkYtk/hNN1J8ZXzaffbkfVk7N2ZTgVrTaioCKAQUB6UBFAKAQVAKgN9mR/zGD5Sf23LNs/xDff4MK0fDu9vktGyRwOH/yG/wBqRbG1dimfJTW2Ttly5oc8XPm/FAQFQCoBQCoBCgFAKgEFQCFARAadbICgLzsWH/a1g4yyK3yxO81sbN7zvbmai1+6z35Gwz5zfq62eF9Oxr2sjLXEuDbOxX4161tNJK5FYnYeFn1UULFR69qlb3E5S5pnfb5rC/An9OJsNJU/rwUdxOUuaZ32+afgT+ibxpKn9eCk3FZS5pnfb5qaPn9E3jSVP68FHcVlLmmd9vmmj5/RN40lT+vBSbi8pc0zvt800fP6JvGkqf14KO4vKXNM77fNTR8/om8aSp/Xgo7i8pc0zvt81NHT+ibxpKn9eCk3GZS5pnfb5po6o9E3jSVP68FHcZlHmmd9vmmjqj0TeNJU/rwU22a+bVbTVsU00bWxsD8RDmk6WEDQP1KyKOimjmR7k1ZmLWVsMkKsauvV5fs2GySf9zhH/cN/tyL3tXZJnyU8LJ2rsuaHPFoDfioBQEUAqAUAqAUAqAVARQCgNOFsgKA2GQ8rS0M7Z4rE2LXsd/hkYdbT2DsXpDK6J3SaeM8DZmdBxeo9kalsMVPUB3GG4HD9iXD6LZJaTPNq8P6adbJk8nJx/h694tJzFT2R+tNJR4V4f0aJlxJx/hPeJScxU9kfrTSUeFeH9GiZcScf4T3iUnMVPZH600nHhXh/RomXEnH+D7w6TmKnsj9amk48K8P6NEy4k4/wnvDpOYqexnrTSceFeH9GiZcScf4PvCpOYqexnrTSceFeH9GiZcScf4T3hUnMVPYz1JpSLCvD+jRMuJOP8J7waTmKnsZ6k0pFhXh/RomXEnH+D7waTmKnsZ6lNKRYV4f0aJlxJx/hDsgUvFBUfvg9SaUjwrw/o0TLiTj/AAqeceX5K+RpLdrijvtcYN7X1uceM/RayqqnTu1pcidiG0pKRtO3VrVe1TUrEMoigFAKgFQDdQCgFQEQHpQCoCIDTrZAbqAUAqAigPSgIgFQCFAKAVAN1AKAVARAerqAVARQCEAqAVAKAVARAKgG6gFQGnWyAoBBUAoCKAVAIKAVAKgEFAKgFQCCgFQEUAoBBUAqAUAgqAVAKAQVAKgIgFQDdQGoWxBEBEB6BUAoCKAVAIKAVAKgEFAKgIoBBQHpQEUAoBBUAqAUAgqAVAKAgKgPSgIgFQGpWwBEBEBEAhQHpARQCgEKAVAKgEIBUBFAIQHpQEUAoBCgFQCgEKAVAKAgUAqAUB//2Q==;" parent="BapCHJRB3HRV54kZIlsD-45" vertex="1">
          <mxGeometry width="99.34942812982999" height="110.55023183925812" as="geometry" />
        </mxCell>
        <mxCell id="eRcXujZsWT057adxH6SI-6" value="" style="group" parent="BapCHJRB3HRV54kZIlsD-45" vertex="1" connectable="0">
          <mxGeometry x="186.1" y="27.82" width="233.9" height="168.18" as="geometry" />
        </mxCell>
        <mxCell id="eRcXujZsWT057adxH6SI-4" value="Name: DNS&lt;div&gt;Gateway: 172.31.16.1&lt;/div&gt;&lt;div&gt;Elastic IP:&amp;nbsp;&lt;span style=&quot;background-color: transparent; color: light-dark(rgb(0, 0, 0), rgb(255, 255, 255));&quot;&gt;18.235.133.85&lt;/span&gt;&lt;/div&gt;&lt;div data-id=&quot;copy-to-clipboard&quot;&gt;&lt;span class=&quot;awsui_root_xjuzf_18lrx_1063&quot;&gt;&lt;span id=&quot;598-1749203219064-2913&quot; class=&quot;awsui_trigger_xjuzf_18lrx_1103&quot;&gt;&lt;div class=&quot;awsui_root_18wu0_1gw4i_920 awsui_box_18wu0_1gw4i_172 awsui_m-right-xs_18wu0_1gw4i_734 awsui_color-default_18wu0_1gw4i_172 awsui_font-size-default_18wu0_1gw4i_188 awsui_font-weight-default_18wu0_1gw4i_228&quot;&gt;&lt;/div&gt;&lt;/span&gt;&lt;div data-awsui-referrer-id=&quot;598-1749203219064-2913&quot; class=&quot;awsui-polaris-compact-mode awsui-compact-mode awsui-visual-refresh awsui_popover-inline-content_xjuzf_18lrx_1158&quot; aria-atomic=&quot;true&quot; aria-live=&quot;polite&quot;&gt;&lt;/div&gt;&lt;/span&gt;&lt;/div&gt;&lt;div&gt;Private IP:&amp;nbsp;&lt;span style=&quot;background-color: transparent; color: light-dark(rgb(0, 0, 0), rgb(255, 255, 255));&quot;&gt;172.31.24.43&lt;/span&gt;&lt;/div&gt;" style="rounded=0;whiteSpace=wrap;html=1;align=left;" parent="eRcXujZsWT057adxH6SI-6" vertex="1">
          <mxGeometry width="233.9" height="168.18" as="geometry" />
        </mxCell>
        <mxCell id="eRcXujZsWT057adxH6SI-5" value="" style="points=[];aspect=fixed;html=1;align=center;shadow=0;dashed=0;fillColor=#FF6A00;strokeColor=none;shape=mxgraph.alibaba_cloud.dns_domain_name_system;" parent="eRcXujZsWT057adxH6SI-6" vertex="1">
          <mxGeometry x="169" width="58.73" height="57.78" as="geometry" />
        </mxCell>
        <mxCell id="JVz_1oxV5FioTtpvH3Ss-15" style="rounded=0;orthogonalLoop=1;jettySize=auto;html=1;strokeWidth=4;entryX=1;entryY=0.25;entryDx=0;entryDy=0;" parent="BapCHJRB3HRV54kZIlsD-42" target="JVz_1oxV5FioTtpvH3Ss-1" edge="1">
          <mxGeometry relative="1" as="geometry">
            <mxPoint x="1003" y="608" as="sourcePoint" />
            <mxPoint x="593.0182354609927" y="382.43500772797546" as="targetPoint" />
          </mxGeometry>
        </mxCell>
        <mxCell id="S5_yUnxSWhzIpV99y6Iz-3" value="" style="endArrow=classic;html=1;rounded=0;exitX=0.959;exitY=0.485;exitDx=0;exitDy=0;exitPerimeter=0;entryX=1;entryY=0.5;entryDx=0;entryDy=0;strokeWidth=4;" edge="1" parent="BapCHJRB3HRV54kZIlsD-42" source="JVz_1oxV5FioTtpvH3Ss-17" target="eRcXujZsWT057adxH6SI-4">
          <mxGeometry width="50" height="50" relative="1" as="geometry">
            <mxPoint x="914" y="464" as="sourcePoint" />
            <mxPoint x="964" y="414" as="targetPoint" />
          </mxGeometry>
        </mxCell>
        <mxCell id="JVz_1oxV5FioTtpvH3Ss-12" value="" style="group" parent="1" vertex="1" connectable="0">
          <mxGeometry x="520" y="557" width="254" height="148.89999999999998" as="geometry" />
        </mxCell>
        <mxCell id="JVz_1oxV5FioTtpvH3Ss-10" value="" style="sketch=0;pointerEvents=1;shadow=0;dashed=0;html=1;strokeColor=none;fillColor=#505050;labelPosition=center;verticalLabelPosition=bottom;verticalAlign=top;outlineConnect=0;align=center;shape=mxgraph.office.devices.laptop;" parent="JVz_1oxV5FioTtpvH3Ss-12" vertex="1">
          <mxGeometry width="254" height="148.9" as="geometry" />
        </mxCell>
        <mxCell id="JVz_1oxV5FioTtpvH3Ss-11" value="&lt;font style=&quot;font-size: 14px;&quot;&gt;&lt;b&gt;https://neviomarzo.ch&lt;/b&gt;&lt;/font&gt;" style="text;html=1;align=center;verticalAlign=middle;whiteSpace=wrap;rounded=0;strokeWidth=1;" parent="JVz_1oxV5FioTtpvH3Ss-12" vertex="1">
          <mxGeometry x="101" y="50" width="60" height="30" as="geometry" />
        </mxCell>
        <mxCell id="JVz_1oxV5FioTtpvH3Ss-14" style="rounded=0;orthogonalLoop=1;jettySize=auto;html=1;strokeWidth=4;" parent="1" source="JVz_1oxV5FioTtpvH3Ss-10" edge="1">
          <mxGeometry relative="1" as="geometry">
            <mxPoint x="396" y="599" as="targetPoint" />
          </mxGeometry>
        </mxCell>
        <mxCell id="JVz_1oxV5FioTtpvH3Ss-26" value="Port 443" style="edgeLabel;html=1;align=center;verticalAlign=middle;resizable=0;points=[];" parent="JVz_1oxV5FioTtpvH3Ss-14" vertex="1" connectable="0">
          <mxGeometry x="0.3034" y="-2" relative="1" as="geometry">
            <mxPoint x="-18" y="27" as="offset" />
          </mxGeometry>
        </mxCell>
        <mxCell id="eRcXujZsWT057adxH6SI-1" value="Port 80" style="edgeLabel;html=1;align=center;verticalAlign=middle;resizable=0;points=[];" parent="JVz_1oxV5FioTtpvH3Ss-14" vertex="1" connectable="0">
          <mxGeometry x="-0.0064" y="2" relative="1" as="geometry">
            <mxPoint x="17" y="22" as="offset" />
          </mxGeometry>
        </mxCell>
        <mxCell id="JVz_1oxV5FioTtpvH3Ss-16" value="&lt;font style=&quot;font-size: 16px;&quot;&gt;Notebook auserhalb AWS&lt;/font&gt;" style="text;html=1;align=center;verticalAlign=middle;resizable=0;points=[];autosize=1;strokeColor=none;fillColor=none;" parent="1" vertex="1">
          <mxGeometry x="546.5" y="723" width="201" height="31" as="geometry" />
        </mxCell>
        <mxCell id="S5_yUnxSWhzIpV99y6Iz-1" style="rounded=0;orthogonalLoop=1;jettySize=auto;html=1;strokeWidth=4;" edge="1" parent="1" source="JVz_1oxV5FioTtpvH3Ss-10">
          <mxGeometry relative="1" as="geometry">
            <mxPoint x="405" y="544" as="targetPoint" />
          </mxGeometry>
        </mxCell>
        <mxCell id="S5_yUnxSWhzIpV99y6Iz-2" value="Port 53" style="edgeLabel;html=1;align=center;verticalAlign=middle;resizable=0;points=[];" vertex="1" connectable="0" parent="S5_yUnxSWhzIpV99y6Iz-1">
          <mxGeometry x="-0.4053" y="1" relative="1" as="geometry">
            <mxPoint x="10" y="-20" as="offset" />
          </mxGeometry>
        </mxCell>
      </root>
    </mxGraphModel>
  </diagram>
</mxfile>
